<svg width="3184" height="1849" xmlns="http://www.w3.org/2000/svg" xmlns:xlink="http://www.w3.org/1999/xlink" xml:space="preserve" overflow="hidden"><defs><clipPath id="clip0"><path d="M2430.71 641.086 2389.61 592.108 2438.59 551.009 2479.68 599.988Z" fill-rule="evenodd" clip-rule="evenodd"/></clipPath><clipPath id="clip1"><path d="M2430.71 641.086 2389.61 592.108 2438.59 551.009 2479.68 599.988Z" fill-rule="evenodd" clip-rule="evenodd"/></clipPath><clipPath id="clip2"><path d="M2430.71 641.086 2389.61 592.108 2438.59 551.009 2479.68 599.988Z" fill-rule="evenodd" clip-rule="evenodd"/></clipPath></defs><g transform="translate(-31 -26)"><text font-family="Times New Roman,Times New Roman_MSFontService,sans-serif" font-weight="400" font-size="64" transform="matrix(1 0 0 1 324.023 515)">Unlabeled </text><text font-family="Times New Roman,Times New Roman_MSFontService,sans-serif" font-weight="400" font-size="64" transform="matrix(1 0 0 1 282.2 592)">samples from </text><text font-family="Times New Roman,Times New Roman_MSFontService,sans-serif" font-weight="400" font-size="64" transform="matrix(1 0 0 1 244.686 669)">auxiliary dataset</text><path d="M776.5 509.5 776.521 632.746" stroke="#4874CB" stroke-width="4.58333" stroke-miterlimit="8" fill="none" fill-rule="evenodd"/><path d="M783.5 523.5 783.5 617.22" stroke="#4874CB" stroke-width="4.58333" stroke-miterlimit="8" fill="none" fill-rule="evenodd"/><path d="M790.5 539.5 790.5 601.206" stroke="#4874CB" stroke-width="4.58333" stroke-miterlimit="8" fill="none" fill-rule="evenodd"/><path d="M797.5 553.5 797.5 586.178" stroke="#4874CB" stroke-width="4.58333" stroke-miterlimit="8" fill="none" fill-rule="evenodd"/><path d="M804.5 563.5 804.5 573.95" stroke="#4874CB" stroke-width="4.58333" stroke-miterlimit="8" fill="none" fill-rule="evenodd"/><path d="M769.5 523.5 769.501 617.22" stroke="#4874CB" stroke-width="4.58333" stroke-miterlimit="8" fill="none" fill-rule="evenodd"/><path d="M762.5 539.5 762.5 601.206" stroke="#4874CB" stroke-width="4.58333" stroke-miterlimit="8" fill="none" fill-rule="evenodd"/><path d="M755.5 553.5 755.5 586.178" stroke="#4874CB" stroke-width="4.58333" stroke-miterlimit="8" fill="none" fill-rule="evenodd"/><path d="M748.5 563.5 748.5 573.95" stroke="#4874CB" stroke-width="4.58333" stroke-miterlimit="8" fill="none" fill-rule="evenodd"/><path d="M839.5 509.5 839.521 632.746" stroke="#4874CB" stroke-width="4.58333" stroke-miterlimit="8" fill="none" fill-rule="evenodd"/><path d="M846.5 523.5 846.501 617.22" stroke="#4874CB" stroke-width="4.58333" stroke-miterlimit="8" fill="none" fill-rule="evenodd"/><path d="M853.5 539.5 853.5 601.206" stroke="#4874CB" stroke-width="4.58333" stroke-miterlimit="8" fill="none" fill-rule="evenodd"/><path d="M860.5 553.5 860.5 586.178" stroke="#4874CB" stroke-width="4.58333" stroke-miterlimit="8" fill="none" fill-rule="evenodd"/><path d="M867.5 563.5 867.5 573.95" stroke="#4874CB" stroke-width="4.58333" stroke-miterlimit="8" fill="none" fill-rule="evenodd"/><path d="M832.5 523.5 832.5 617.22" stroke="#4874CB" stroke-width="4.58333" stroke-miterlimit="8" fill="none" fill-rule="evenodd"/><path d="M825.5 539.5 825.5 601.206" stroke="#4874CB" stroke-width="4.58333" stroke-miterlimit="8" fill="none" fill-rule="evenodd"/><path d="M818.5 553.5 818.5 586.178" stroke="#4874CB" stroke-width="4.58333" stroke-miterlimit="8" fill="none" fill-rule="evenodd"/><path d="M811.5 563.5 811.5 573.95" stroke="#4874CB" stroke-width="4.58333" stroke-miterlimit="8" fill="none" fill-rule="evenodd"/><path d="M902.5 509.5 902.521 632.746" stroke="#4874CB" stroke-width="4.58333" stroke-miterlimit="8" fill="none" fill-rule="evenodd"/><path d="M909.5 523.5 909.5 617.22" stroke="#4874CB" stroke-width="4.58333" stroke-miterlimit="8" fill="none" fill-rule="evenodd"/><path d="M916.5 539.5 916.5 601.206" stroke="#4874CB" stroke-width="4.58333" stroke-miterlimit="8" fill="none" fill-rule="evenodd"/><path d="M923.5 553.5 923.501 586.178" stroke="#4874CB" stroke-width="4.58333" stroke-miterlimit="8" fill="none" fill-rule="evenodd"/><path d="M930.5 563.5 930.5 573.95" stroke="#4874CB" stroke-width="4.58333" stroke-miterlimit="8" fill="none" fill-rule="evenodd"/><path d="M895.5 523.5 895.5 617.22" stroke="#4874CB" stroke-width="4.58333" stroke-miterlimit="8" fill="none" fill-rule="evenodd"/><path d="M888.5 539.5 888.5 601.206" stroke="#4874CB" stroke-width="4.58333" stroke-miterlimit="8" fill="none" fill-rule="evenodd"/><path d="M881.5 553.5 881.5 586.178" stroke="#4874CB" stroke-width="4.58333" stroke-miterlimit="8" fill="none" fill-rule="evenodd"/><path d="M874.5 563.5 874.5 573.95" stroke="#4874CB" stroke-width="4.58333" stroke-miterlimit="8" fill="none" fill-rule="evenodd"/><path d="M736.5 519.834C736.5 505.29 748.29 493.5 762.834 493.5L917.166 493.5C931.71 493.5 943.5 505.29 943.5 519.834L943.5 625.166C943.5 639.71 931.71 651.5 917.166 651.5L762.834 651.5C748.29 651.5 736.5 639.71 736.5 625.166Z" stroke="#000000" stroke-width="4.58333" stroke-miterlimit="8" stroke-dasharray="36.6667 13.75" fill="none" fill-rule="evenodd"/><path d="M1268.5 193.5 1268.52 316.721" stroke="#4874CB" stroke-width="4.58333" stroke-miterlimit="8" fill="none" fill-rule="evenodd"/><path d="M1275.5 208.5 1275.5 302.201" stroke="#4874CB" stroke-width="4.58333" stroke-miterlimit="8" fill="none" fill-rule="evenodd"/><path d="M1282.5 223.5 1282.5 285.193" stroke="#4874CB" stroke-width="4.58333" stroke-miterlimit="8" fill="none" fill-rule="evenodd"/><path d="M1289.5 237.5 1289.5 270.171" stroke="#4874CB" stroke-width="4.58333" stroke-miterlimit="8" fill="none" fill-rule="evenodd"/><path d="M1296.5 248.5 1296.5 258.948" stroke="#4874CB" stroke-width="4.58333" stroke-miterlimit="8" fill="none" fill-rule="evenodd"/><path d="M1260.5 208.5 1260.5 302.201" stroke="#4874CB" stroke-width="4.58333" stroke-miterlimit="8" fill="none" fill-rule="evenodd"/><path d="M1253.5 223.5 1253.5 285.193" stroke="#4874CB" stroke-width="4.58333" stroke-miterlimit="8" fill="none" fill-rule="evenodd"/><path d="M1246.5 237.5 1246.5 270.171" stroke="#4874CB" stroke-width="4.58333" stroke-miterlimit="8" fill="none" fill-rule="evenodd"/><path d="M1239.5 248.5 1239.5 258.948" stroke="#4874CB" stroke-width="4.58333" stroke-miterlimit="8" fill="none" fill-rule="evenodd"/><path d="M1331.5 193.5 1331.52 316.721" stroke="#4874CB" stroke-width="4.58333" stroke-miterlimit="8" fill="none" fill-rule="evenodd"/><path d="M1338.5 208.5 1338.5 302.201" stroke="#4874CB" stroke-width="4.58333" stroke-miterlimit="8" fill="none" fill-rule="evenodd"/><path d="M1345.5 223.5 1345.5 285.193" stroke="#4874CB" stroke-width="4.58333" stroke-miterlimit="8" fill="none" fill-rule="evenodd"/><path d="M1352.5 237.5 1352.5 270.171" stroke="#4874CB" stroke-width="4.58333" stroke-miterlimit="8" fill="none" fill-rule="evenodd"/><path d="M1359.5 248.5 1359.5 258.948" stroke="#4874CB" stroke-width="4.58333" stroke-miterlimit="8" fill="none" fill-rule="evenodd"/><path d="M1324.5 208.5 1324.5 302.201" stroke="#4874CB" stroke-width="4.58333" stroke-miterlimit="8" fill="none" fill-rule="evenodd"/><path d="M1317.5 223.5 1317.5 285.193" stroke="#4874CB" stroke-width="4.58333" stroke-miterlimit="8" fill="none" fill-rule="evenodd"/><path d="M1310.5 237.5 1310.5 270.171" stroke="#4874CB" stroke-width="4.58333" stroke-miterlimit="8" fill="none" fill-rule="evenodd"/><path d="M1303.5 248.5 1303.5 258.948" stroke="#4874CB" stroke-width="4.58333" stroke-miterlimit="8" fill="none" fill-rule="evenodd"/><path d="M1394.5 193.5 1394.52 316.721" stroke="#4874CB" stroke-width="4.58333" stroke-miterlimit="8" fill="none" fill-rule="evenodd"/><path d="M1401.5 208.5 1401.5 302.201" stroke="#4874CB" stroke-width="4.58333" stroke-miterlimit="8" fill="none" fill-rule="evenodd"/><path d="M1408.5 223.5 1408.5 285.193" stroke="#4874CB" stroke-width="4.58333" stroke-miterlimit="8" fill="none" fill-rule="evenodd"/><path d="M1415.5 237.5 1415.5 270.171" stroke="#4874CB" stroke-width="4.58333" stroke-miterlimit="8" fill="none" fill-rule="evenodd"/><path d="M1422.5 248.5 1422.5 258.948" stroke="#4874CB" stroke-width="4.58333" stroke-miterlimit="8" fill="none" fill-rule="evenodd"/><path d="M1387.5 208.5 1387.5 302.201" stroke="#4874CB" stroke-width="4.58333" stroke-miterlimit="8" fill="none" fill-rule="evenodd"/><path d="M1380.5 223.5 1380.5 285.193" stroke="#4874CB" stroke-width="4.58333" stroke-miterlimit="8" fill="none" fill-rule="evenodd"/><path d="M1373.5 237.5 1373.5 270.171" stroke="#4874CB" stroke-width="4.58333" stroke-miterlimit="8" fill="none" fill-rule="evenodd"/><path d="M1366.5 248.5 1366.5 258.948" stroke="#4874CB" stroke-width="4.58333" stroke-miterlimit="8" fill="none" fill-rule="evenodd"/><path d="M1227.5 203.834C1227.5 189.29 1239.29 177.5 1253.83 177.5L1409.17 177.5C1423.71 177.5 1435.5 189.29 1435.5 203.834L1435.5 309.166C1435.5 323.71 1423.71 335.5 1409.17 335.5L1253.83 335.5C1239.29 335.5 1227.5 323.71 1227.5 309.166Z" stroke="#000000" stroke-width="4.58333" stroke-miterlimit="8" stroke-dasharray="36.6667 13.75" fill="none" fill-rule="evenodd"/><path d="M1268.5 423.5 1268.52 546.721" stroke="#75BD42" stroke-width="4.58333" stroke-miterlimit="8" fill="none" fill-rule="evenodd"/><path d="M1275.5 437.5 1275.5 531.201" stroke="#75BD42" stroke-width="4.58333" stroke-miterlimit="8" fill="none" fill-rule="evenodd"/><path d="M1282.5 453.5 1282.5 515.193" stroke="#75BD42" stroke-width="4.58333" stroke-miterlimit="8" fill="none" fill-rule="evenodd"/><path d="M1289.5 467.5 1289.5 500.171" stroke="#75BD42" stroke-width="4.58333" stroke-miterlimit="8" fill="none" fill-rule="evenodd"/><path d="M1296.5 477.5 1296.5 487.948" stroke="#75BD42" stroke-width="4.58333" stroke-miterlimit="8" fill="none" fill-rule="evenodd"/><path d="M1260.5 437.5 1260.5 531.201" stroke="#75BD42" stroke-width="4.58333" stroke-miterlimit="8" fill="none" fill-rule="evenodd"/><path d="M1253.5 453.5 1253.5 515.193" stroke="#75BD42" stroke-width="4.58333" stroke-miterlimit="8" fill="none" fill-rule="evenodd"/><path d="M1246.5 467.5 1246.5 500.171" stroke="#75BD42" stroke-width="4.58333" stroke-miterlimit="8" fill="none" fill-rule="evenodd"/><path d="M1239.5 477.5 1239.5 487.948" stroke="#75BD42" stroke-width="4.58333" stroke-miterlimit="8" fill="none" fill-rule="evenodd"/><path d="M1331.5 423.5 1331.52 546.721" stroke="#75BD42" stroke-width="4.58333" stroke-miterlimit="8" fill="none" fill-rule="evenodd"/><path d="M1338.5 437.5 1338.5 531.201" stroke="#75BD42" stroke-width="4.58333" stroke-miterlimit="8" fill="none" fill-rule="evenodd"/><path d="M1345.5 453.5 1345.5 515.193" stroke="#75BD42" stroke-width="4.58333" stroke-miterlimit="8" fill="none" fill-rule="evenodd"/><path d="M1352.5 467.5 1352.5 500.171" stroke="#75BD42" stroke-width="4.58333" stroke-miterlimit="8" fill="none" fill-rule="evenodd"/><path d="M1359.5 477.5 1359.5 487.948" stroke="#75BD42" stroke-width="4.58333" stroke-miterlimit="8" fill="none" fill-rule="evenodd"/><path d="M1324.5 437.5 1324.5 531.201" stroke="#75BD42" stroke-width="4.58333" stroke-miterlimit="8" fill="none" fill-rule="evenodd"/><path d="M1317.5 453.5 1317.5 515.193" stroke="#75BD42" stroke-width="4.58333" stroke-miterlimit="8" fill="none" fill-rule="evenodd"/><path d="M1310.5 467.5 1310.5 500.171" stroke="#75BD42" stroke-width="4.58333" stroke-miterlimit="8" fill="none" fill-rule="evenodd"/><path d="M1303.5 477.5 1303.5 487.948" stroke="#75BD42" stroke-width="4.58333" stroke-miterlimit="8" fill="none" fill-rule="evenodd"/><path d="M1394.5 423.5 1394.52 546.721" stroke="#75BD42" stroke-width="4.58333" stroke-miterlimit="8" fill="none" fill-rule="evenodd"/><path d="M1401.5 437.5 1401.5 531.201" stroke="#75BD42" stroke-width="4.58333" stroke-miterlimit="8" fill="none" fill-rule="evenodd"/><path d="M1408.5 453.5 1408.5 515.193" stroke="#75BD42" stroke-width="4.58333" stroke-miterlimit="8" fill="none" fill-rule="evenodd"/><path d="M1415.5 467.5 1415.5 500.171" stroke="#75BD42" stroke-width="4.58333" stroke-miterlimit="8" fill="none" fill-rule="evenodd"/><path d="M1422.5 477.5 1422.5 487.948" stroke="#75BD42" stroke-width="4.58333" stroke-miterlimit="8" fill="none" fill-rule="evenodd"/><path d="M1387.5 437.5 1387.5 531.201" stroke="#75BD42" stroke-width="4.58333" stroke-miterlimit="8" fill="none" fill-rule="evenodd"/><path d="M1380.5 453.5 1380.5 515.193" stroke="#75BD42" stroke-width="4.58333" stroke-miterlimit="8" fill="none" fill-rule="evenodd"/><path d="M1373.5 467.5 1373.5 500.171" stroke="#75BD42" stroke-width="4.58333" stroke-miterlimit="8" fill="none" fill-rule="evenodd"/><path d="M1366.5 477.5 1366.5 487.948" stroke="#75BD42" stroke-width="4.58333" stroke-miterlimit="8" fill="none" fill-rule="evenodd"/><path d="M1227.5 433.001C1227.5 418.365 1239.36 406.5 1254 406.5L1409 406.5C1423.64 406.5 1435.5 418.365 1435.5 433.001L1435.5 539C1435.5 553.635 1423.64 565.5 1409 565.5L1254 565.5C1239.36 565.5 1227.5 553.635 1227.5 539Z" stroke="#000000" stroke-width="4.58333" stroke-miterlimit="8" stroke-dasharray="36.6667 13.75" fill="none" fill-rule="evenodd"/><path d="M1268.5 652.5 1268.52 775.721" stroke="#E54C5E" stroke-width="4.58333" stroke-miterlimit="8" fill="none" fill-rule="evenodd"/><path d="M1275.5 667.5 1275.5 761.201" stroke="#E54C5E" stroke-width="4.58333" stroke-miterlimit="8" fill="none" fill-rule="evenodd"/><path d="M1282.5 683.5 1282.5 745.193" stroke="#E54C5E" stroke-width="4.58333" stroke-miterlimit="8" fill="none" fill-rule="evenodd"/><path d="M1289.5 697.5 1289.5 730.171" stroke="#E54C5E" stroke-width="4.58333" stroke-miterlimit="8" fill="none" fill-rule="evenodd"/><path d="M1296.5 707.5 1296.5 717.948" stroke="#E54C5E" stroke-width="4.58333" stroke-miterlimit="8" fill="none" fill-rule="evenodd"/><path d="M1260.5 667.5 1260.5 761.201" stroke="#E54C5E" stroke-width="4.58333" stroke-miterlimit="8" fill="none" fill-rule="evenodd"/><path d="M1253.5 683.5 1253.5 745.193" stroke="#E54C5E" stroke-width="4.58333" stroke-miterlimit="8" fill="none" fill-rule="evenodd"/><path d="M1246.5 697.5 1246.5 730.171" stroke="#E54C5E" stroke-width="4.58333" stroke-miterlimit="8" fill="none" fill-rule="evenodd"/><path d="M1239.5 707.5 1239.5 717.948" stroke="#E54C5E" stroke-width="4.58333" stroke-miterlimit="8" fill="none" fill-rule="evenodd"/><path d="M1331.5 652.5 1331.52 775.721" stroke="#E54C5E" stroke-width="4.58333" stroke-miterlimit="8" fill="none" fill-rule="evenodd"/><path d="M1338.5 667.5 1338.5 761.201" stroke="#E54C5E" stroke-width="4.58333" stroke-miterlimit="8" fill="none" fill-rule="evenodd"/><path d="M1345.5 683.5 1345.5 745.193" stroke="#E54C5E" stroke-width="4.58333" stroke-miterlimit="8" fill="none" fill-rule="evenodd"/><path d="M1352.5 697.5 1352.5 730.171" stroke="#E54C5E" stroke-width="4.58333" stroke-miterlimit="8" fill="none" fill-rule="evenodd"/><path d="M1359.5 707.5 1359.5 717.948" stroke="#E54C5E" stroke-width="4.58333" stroke-miterlimit="8" fill="none" fill-rule="evenodd"/><path d="M1324.5 667.5 1324.5 761.201" stroke="#E54C5E" stroke-width="4.58333" stroke-miterlimit="8" fill="none" fill-rule="evenodd"/><path d="M1317.5 683.5 1317.5 745.193" stroke="#E54C5E" stroke-width="4.58333" stroke-miterlimit="8" fill="none" fill-rule="evenodd"/><path d="M1310.5 697.5 1310.5 730.171" stroke="#E54C5E" stroke-width="4.58333" stroke-miterlimit="8" fill="none" fill-rule="evenodd"/><path d="M1303.5 707.5 1303.5 717.948" stroke="#E54C5E" stroke-width="4.58333" stroke-miterlimit="8" fill="none" fill-rule="evenodd"/><path d="M1394.5 652.5 1394.52 775.721" stroke="#E54C5E" stroke-width="4.58333" stroke-miterlimit="8" fill="none" fill-rule="evenodd"/><path d="M1401.5 667.5 1401.5 761.201" stroke="#E54C5E" stroke-width="4.58333" stroke-miterlimit="8" fill="none" fill-rule="evenodd"/><path d="M1408.5 683.5 1408.5 745.193" stroke="#E54C5E" stroke-width="4.58333" stroke-miterlimit="8" fill="none" fill-rule="evenodd"/><path d="M1415.5 697.5 1415.5 730.171" stroke="#E54C5E" stroke-width="4.58333" stroke-miterlimit="8" fill="none" fill-rule="evenodd"/><path d="M1422.5 707.5 1422.5 717.948" stroke="#E54C5E" stroke-width="4.58333" stroke-miterlimit="8" fill="none" fill-rule="evenodd"/><path d="M1387.5 667.5 1387.5 761.201" stroke="#E54C5E" stroke-width="4.58333" stroke-miterlimit="8" fill="none" fill-rule="evenodd"/><path d="M1380.5 683.5 1380.5 745.193" stroke="#E54C5E" stroke-width="4.58333" stroke-miterlimit="8" fill="none" fill-rule="evenodd"/><path d="M1373.5 697.5 1373.5 730.171" stroke="#E54C5E" stroke-width="4.58333" stroke-miterlimit="8" fill="none" fill-rule="evenodd"/><path d="M1366.5 707.5 1366.5 717.948" stroke="#E54C5E" stroke-width="4.58333" stroke-miterlimit="8" fill="none" fill-rule="evenodd"/><path d="M1227.5 663.001C1227.5 648.365 1239.36 636.5 1254 636.5L1409 636.5C1423.64 636.5 1435.5 648.365 1435.5 663.001L1435.5 768.999C1435.5 783.635 1423.64 795.5 1409 795.5L1254 795.5C1239.36 795.5 1227.5 783.635 1227.5 768.999Z" stroke="#000000" stroke-width="4.58333" stroke-miterlimit="8" stroke-dasharray="36.6667 13.75" fill="none" fill-rule="evenodd"/><path d="M1268.5 882.5 1268.52 1005.72" stroke="#FF0000" stroke-width="4.58333" stroke-miterlimit="8" fill="none" fill-rule="evenodd"/><path d="M1275.5 897.5 1275.5 991.201" stroke="#FF0000" stroke-width="4.58333" stroke-miterlimit="8" fill="none" fill-rule="evenodd"/><path d="M1282.5 913.5 1282.5 975.193" stroke="#FF0000" stroke-width="4.58333" stroke-miterlimit="8" fill="none" fill-rule="evenodd"/><path d="M1289.5 927.5 1289.5 960.171" stroke="#FF0000" stroke-width="4.58333" stroke-miterlimit="8" fill="none" fill-rule="evenodd"/><path d="M1296.5 937.5 1296.5 947.948" stroke="#FF0000" stroke-width="4.58333" stroke-miterlimit="8" fill="none" fill-rule="evenodd"/><path d="M1260.5 897.5 1260.5 991.201" stroke="#FF0000" stroke-width="4.58333" stroke-miterlimit="8" fill="none" fill-rule="evenodd"/><path d="M1253.5 913.5 1253.5 975.193" stroke="#FF0000" stroke-width="4.58333" stroke-miterlimit="8" fill="none" fill-rule="evenodd"/><path d="M1246.5 927.5 1246.5 960.171" stroke="#FF0000" stroke-width="4.58333" stroke-miterlimit="8" fill="none" fill-rule="evenodd"/><path d="M1240.5 937.5 1240.5 947.948" stroke="#FF0000" stroke-width="4.58333" stroke-miterlimit="8" fill="none" fill-rule="evenodd"/><path d="M1331.5 882.5 1331.52 1005.72" stroke="#FF0000" stroke-width="4.58333" stroke-miterlimit="8" fill="none" fill-rule="evenodd"/><path d="M1338.5 897.5 1338.5 991.201" stroke="#FF0000" stroke-width="4.58333" stroke-miterlimit="8" fill="none" fill-rule="evenodd"/><path d="M1345.5 913.5 1345.5 975.193" stroke="#FF0000" stroke-width="4.58333" stroke-miterlimit="8" fill="none" fill-rule="evenodd"/><path d="M1352.5 927.5 1352.5 960.171" stroke="#FF0000" stroke-width="4.58333" stroke-miterlimit="8" fill="none" fill-rule="evenodd"/><path d="M1359.5 937.5 1359.5 947.948" stroke="#FF0000" stroke-width="4.58333" stroke-miterlimit="8" fill="none" fill-rule="evenodd"/><path d="M1324.5 897.5 1324.5 991.201" stroke="#FF0000" stroke-width="4.58333" stroke-miterlimit="8" fill="none" fill-rule="evenodd"/><path d="M1317.5 913.5 1317.5 975.193" stroke="#FF0000" stroke-width="4.58333" stroke-miterlimit="8" fill="none" fill-rule="evenodd"/><path d="M1310.5 927.5 1310.5 960.171" stroke="#FF0000" stroke-width="4.58333" stroke-miterlimit="8" fill="none" fill-rule="evenodd"/><path d="M1303.5 937.5 1303.5 947.948" stroke="#FF0000" stroke-width="4.58333" stroke-miterlimit="8" fill="none" fill-rule="evenodd"/><path d="M1394.5 882.5 1394.52 1005.72" stroke="#FF0000" stroke-width="4.58333" stroke-miterlimit="8" fill="none" fill-rule="evenodd"/><path d="M1401.5 897.5 1401.5 991.201" stroke="#FF0000" stroke-width="4.58333" stroke-miterlimit="8" fill="none" fill-rule="evenodd"/><path d="M1408.5 913.5 1408.5 975.193" stroke="#FF0000" stroke-width="4.58333" stroke-miterlimit="8" fill="none" fill-rule="evenodd"/><path d="M1415.5 927.5 1415.5 960.171" stroke="#FF0000" stroke-width="4.58333" stroke-miterlimit="8" fill="none" fill-rule="evenodd"/><path d="M1422.5 937.5 1422.5 947.948" stroke="#FF0000" stroke-width="4.58333" stroke-miterlimit="8" fill="none" fill-rule="evenodd"/><path d="M1387.5 897.5 1387.5 991.201" stroke="#FF0000" stroke-width="4.58333" stroke-miterlimit="8" fill="none" fill-rule="evenodd"/><path d="M1380.5 913.5 1380.5 975.193" stroke="#FF0000" stroke-width="4.58333" stroke-miterlimit="8" fill="none" fill-rule="evenodd"/><path d="M1373.5 927.5 1373.5 960.171" stroke="#FF0000" stroke-width="4.58333" stroke-miterlimit="8" fill="none" fill-rule="evenodd"/><path d="M1366.5 937.5 1366.5 947.948" stroke="#FF0000" stroke-width="4.58333" stroke-miterlimit="8" fill="none" fill-rule="evenodd"/><path d="M1227.5 893.001C1227.5 878.365 1239.36 866.5 1254 866.5L1409 866.5C1423.64 866.5 1435.5 878.365 1435.5 893.001L1435.5 998.999C1435.5 1013.64 1423.64 1025.5 1409 1025.5L1254 1025.5C1239.36 1025.5 1227.5 1013.64 1227.5 998.999Z" stroke="#000000" stroke-width="4.58333" stroke-miterlimit="8" stroke-dasharray="36.6667 13.75" fill="none" fill-rule="evenodd"/><path d="M0-2.29167 108.395-2.29167 108.395 318.083 106.104 315.792 242.688 315.792 242.688 320.375 103.812 320.375 103.812 0 106.104 2.29167 0 2.29167ZM238.104 304.333 265.604 318.083 238.104 331.833Z" transform="matrix(1 0 0 -1 943.5 572.583)"/><path d="M0-2.29167 107.707-2.29167 107.707 89.375 105.416 87.0833 242.688 87.0833 242.688 91.6667 103.124 91.6667 103.124 0 105.416 2.29167 0 2.29167ZM238.104 75.625 265.604 89.375 238.104 103.125Z" transform="matrix(1 0 0 -1 943.5 572.875)"/><path d="M943.5 570.208 1051.21 570.208 1051.21 715.958 1048.92 713.667 1186.42 713.667 1186.42 718.25 1046.62 718.25 1046.62 572.5 1048.92 574.792 943.5 574.792ZM1181.83 702.208 1209.33 715.958 1181.83 729.708Z"/><path d="M943.5 570.208 1050.52 570.208 1050.52 942.604 1048.23 940.312 1186.19 940.312 1186.19 944.896 1045.94 944.896 1045.94 572.5 1048.23 574.792 943.5 574.792ZM1181.6 928.854 1209.1 942.604 1181.6 956.354Z"/><path d="M9.91463e-06-2.29167 60.5-2.2914 60.5 2.29193-9.91463e-06 2.29167ZM55.9167-13.7498 83.4167 0.000360892 55.9166 13.7502Z" transform="matrix(1 0 0 -1 2223.5 592.5)"/><rect x="2629.5" y="626.5" width="101" height="227" stroke="#192D54" stroke-width="4.58333" stroke-miterlimit="8" fill="#91ACE0"/><path d="M2577.5 421.5C2577.5 413.768 2584.22 407.5 2592.5 407.5 2600.78 407.5 2607.5 413.768 2607.5 421.5 2607.5 429.232 2600.78 435.5 2592.5 435.5 2584.22 435.5 2577.5 429.232 2577.5 421.5Z" stroke="#325395" stroke-width="4.58333" stroke-miterlimit="8" fill="#FCE6D5" fill-rule="evenodd"/><path d="M2577.5 470.5C2577.5 462.768 2584.22 456.5 2592.5 456.5 2600.78 456.5 2607.5 462.768 2607.5 470.5 2607.5 478.232 2600.78 484.5 2592.5 484.5 2584.22 484.5 2577.5 478.232 2577.5 470.5Z" stroke="#325395" stroke-width="4.58333" stroke-miterlimit="8" fill="#FCE6D5" fill-rule="evenodd"/><path d="M2641.5 395.5C2641.5 387.768 2647.99 381.5 2656 381.5 2664.01 381.5 2670.5 387.768 2670.5 395.5 2670.5 403.232 2664.01 409.5 2656 409.5 2647.99 409.5 2641.5 403.232 2641.5 395.5Z" stroke="#325395" stroke-width="4.58333" stroke-miterlimit="8" fill="#FCE6D5" fill-rule="evenodd"/><path d="M2641.5 450.5C2641.5 442.768 2647.99 436.5 2656 436.5 2664.01 436.5 2670.5 442.768 2670.5 450.5 2670.5 458.232 2664.01 464.5 2656 464.5 2647.99 464.5 2641.5 458.232 2641.5 450.5Z" stroke="#325395" stroke-width="4.58333" stroke-miterlimit="8" fill="#FCE6D5" fill-rule="evenodd"/><path d="M2641.5 506.5C2641.5 498.768 2647.99 492.5 2656 492.5 2664.01 492.5 2670.5 498.768 2670.5 506.5 2670.5 514.232 2664.01 520.5 2656 520.5 2647.99 520.5 2641.5 514.232 2641.5 506.5Z" stroke="#325395" stroke-width="4.58333" stroke-miterlimit="8" fill="#FCE6D5" fill-rule="evenodd"/><path d="M2704.5 421.5C2704.5 413.768 2711.22 407.5 2719.5 407.5 2727.78 407.5 2734.5 413.768 2734.5 421.5 2734.5 429.232 2727.78 435.5 2719.5 435.5 2711.22 435.5 2704.5 429.232 2704.5 421.5Z" stroke="#325395" stroke-width="4.58333" stroke-miterlimit="8" fill="#FCE6D5" fill-rule="evenodd"/><path d="M2704.5 470.5C2704.5 462.768 2711.22 456.5 2719.5 456.5 2727.78 456.5 2734.5 462.768 2734.5 470.5 2734.5 478.232 2727.78 484.5 2719.5 484.5 2711.22 484.5 2704.5 478.232 2704.5 470.5Z" stroke="#325395" stroke-width="4.58333" stroke-miterlimit="8" fill="#FCE6D5" fill-rule="evenodd"/><path d="M0 0 33.4479 25.9276" stroke="#4874CB" stroke-width="4.58333" stroke-miterlimit="8" fill="none" fill-rule="evenodd" transform="matrix(1 0 0 -1 2607.5 421.428)"/><path d="M2607.5 421.5 2640.95 450.879" stroke="#4874CB" stroke-width="4.58333" stroke-miterlimit="8" fill="none" fill-rule="evenodd"/><path d="M2607.5 421.5 2640.95 506.186" stroke="#4874CB" stroke-width="4.58333" stroke-miterlimit="8" fill="none" fill-rule="evenodd"/><path d="M0 0 33.4479 74.8798" stroke="#4874CB" stroke-width="4.58333" stroke-miterlimit="8" fill="none" fill-rule="evenodd" transform="matrix(1 0 0 -1 2607.5 470.38)"/><path d="M0 0 33.4479 19.573" stroke="#4874CB" stroke-width="4.58333" stroke-miterlimit="8" fill="none" fill-rule="evenodd" transform="matrix(1 0 0 -1 2607.5 470.073)"/><path d="M2607.5 469.5 2640.95 506.371" stroke="#4874CB" stroke-width="4.58333" stroke-miterlimit="8" fill="none" fill-rule="evenodd"/><path d="M2670.5 395.5 2703.95 421.428" stroke="#4874CB" stroke-width="4.58333" stroke-miterlimit="8" fill="none" fill-rule="evenodd"/><path d="M2670.5 395.5 2703.95 470.38" stroke="#4874CB" stroke-width="4.58333" stroke-miterlimit="8" fill="none" fill-rule="evenodd"/><path d="M0 0 33.4479 29.3792" stroke="#4874CB" stroke-width="4.58333" stroke-miterlimit="8" fill="none" fill-rule="evenodd" transform="matrix(1 0 0 -1 2670.5 450.879)"/><path d="M2670.5 450.5 2703.95 470.073" stroke="#4874CB" stroke-width="4.58333" stroke-miterlimit="8" fill="none" fill-rule="evenodd"/><path d="M0 0 33.4479 84.6859" stroke="#4874CB" stroke-width="4.58333" stroke-miterlimit="8" fill="none" fill-rule="evenodd" transform="matrix(1 0 0 -1 2670.5 506.186)"/><path d="M0 0 32.7001 35.8121" stroke="#4874CB" stroke-width="4.58333" stroke-miterlimit="8" fill="none" fill-rule="evenodd" transform="matrix(1 0 0 -1 2671.5 506.312)"/><path d="M2563.5 388.211C2563.5 379.534 2570.53 372.5 2579.21 372.5L2732.79 372.5C2741.47 372.5 2748.5 379.534 2748.5 388.211L2748.5 512.789C2748.5 521.466 2741.47 528.5 2732.79 528.5L2579.21 528.5C2570.53 528.5 2563.5 521.466 2563.5 512.789Z" stroke="#325395" stroke-width="4.58333" stroke-miterlimit="8" fill="none" fill-rule="evenodd"/><path d="M3141.76 334.5C3148.24 334.5 3153.5 339.757 3153.5 346.241L3153.5 555.759C3153.5 562.244 3148.24 567.5 3141.76 567.5L2885.24 567.5C2878.76 567.5 2873.5 562.244 2873.5 555.759L2873.5 346.241C2873.5 339.757 2878.76 334.5 2885.24 334.5Z" stroke="#000000" stroke-width="4.58333" stroke-miterlimit="8" stroke-dasharray="18.3333 13.75" fill="none" fill-rule="evenodd"/><rect x="2894.5" y="359.5" width="61.0002" height="28.9999" stroke="#EE822F" stroke-width="4.58333" stroke-miterlimit="8" fill="#EE822F"/><rect x="2894.5" y="413.5" width="30.0002" height="28.9999" stroke="#EE822F" stroke-width="4.58333" stroke-miterlimit="8" fill="#EE822F"/><rect x="2894.5" y="462.5" width="109" height="29.0002" stroke="#EE822F" stroke-width="4.58333" stroke-miterlimit="8" fill="#EE822F"/><rect x="2896.5" y="513.5" width="78" height="28.9999" stroke="#EE822F" stroke-width="4.58333" stroke-miterlimit="8" fill="#EE822F"/><text font-family="Times New Roman,Times New Roman_MSFontService,sans-serif" font-weight="400" font-size="55" transform="matrix(1 0 0 1 3024.63 388)">0</text><text font-family="Times New Roman,Times New Roman_MSFontService,sans-serif" font-weight="400" font-size="55" transform="matrix(1 0 0 1 3024.63 443)">Ï€/2</text><text font-family="Times New Roman,Times New Roman_MSFontService,sans-serif" font-weight="400" font-size="55" transform="matrix(1 0 0 1 3024.63 498)">Ï€</text><text font-family="Times New Roman,Times New Roman_MSFontService,sans-serif" font-weight="400" font-size="55" transform="matrix(1 0 0 1 3024.63 553)">3Ï€/2</text><path d="M0.00860714-2.29165 221.155-1.46106 221.137 3.12225-0.00860714 2.29165ZM216.614-12.9365 244.062 0.916667 216.511 14.5633Z" transform="matrix(1 0 0 -1 2730.5 740.417)"/><rect x="2974.5" y="658.5" width="107" height="162" stroke="#192D54" stroke-width="4.58333" stroke-miterlimit="8" fill="#91ACE0"/><path d="M22.9248-2.20892 190.446-1.60415 190.429 2.97915 22.9082 2.37438ZM27.4502 13.8492 0 0 27.5495-13.6506Z" transform="matrix(-1 0 0 1 2562.94 450.5)"/><path d="M2749.51 448.208 2851.03 448.582 2851.01 453.166 2749.49 452.792ZM2846.49 437.107 2873.94 450.958 2846.39 464.607Z"/><path d="M2281.5 945.667C2281.5 937.843 2287.84 931.5 2295.67 931.5L2734.33 931.5C2742.16 931.5 2748.5 937.843 2748.5 945.667L2748.5 1002.33C2748.5 1010.16 2742.16 1016.5 2734.33 1016.5L2295.67 1016.5C2287.84 1016.5 2281.5 1010.16 2281.5 1002.33Z" stroke="#FF0000" stroke-width="4.58333" stroke-miterlimit="8" fill="none" fill-rule="evenodd"/><text font-family="Times New Roman,Times New Roman_MSFontService,sans-serif" font-weight="400" font-size="64" transform="matrix(1 0 0 1 2448.74 997)">MSE</text><path d="M2.29143-0.0330177 3.10708 56.5735-1.47577 56.6396-2.29143 0.0330177ZM14.4982 51.8256 1.14583 79.5208-12.999 52.2218Z" transform="matrix(-1 0 0 1 2680.65 853.5)"/><path d="M2157.5 1073.17C2157.5 1064.51 2164.51 1057.5 2173.17 1057.5L2789.83 1057.5C2798.49 1057.5 2805.5 1064.51 2805.5 1073.17L2805.5 1135.83C2805.5 1144.49 2798.49 1151.5 2789.83 1151.5L2173.17 1151.5C2164.51 1151.5 2157.5 1144.49 2157.5 1135.83Z" stroke="#FF0000" stroke-width="4.58333" stroke-miterlimit="8" fill="none" fill-rule="evenodd"/><text font-family="Times New Roman,Times New Roman_MSFontService,sans-serif" font-weight="400" font-size="64" transform="matrix(1 0 0 1 2416.88 1128)">NCE</text><path d="M3030.41 820.5 3030.41 1107.48 2828.42 1107.48 2828.42 1102.89 3028.12 1102.89 3025.83 1105.19 3025.83 820.5ZM2833 1118.94 2805.5 1105.19 2833 1091.44Z"/><path d="M0-2.29167 455.567-2.29167 455.567 1295.06 450.984 1295.06 450.984 0 453.275 2.29167 0 2.29167ZM467.025 1290.47 453.275 1317.97 439.525 1290.47Z" transform="matrix(1.83697e-16 1 1 -1.83697e-16 839.5 651.5)"/><path d="M2030.5 54.0004C2030.5 45.4398 2037.44 38.5 2046 38.5L2515 38.5C2523.56 38.5 2530.5 45.4398 2530.5 54.0004L2530.5 116C2530.5 124.56 2523.56 131.5 2515 131.5L2046 131.5C2037.44 131.5 2030.5 124.56 2030.5 116Z" stroke="#FF0000" stroke-width="4.58333" stroke-miterlimit="8" fill="none" fill-rule="evenodd"/><text font-family="Times New Roman,Times New Roman_MSFontService,sans-serif" font-weight="400" font-size="64" transform="matrix(1 0 0 1 2221.19 108)">CLS</text><path d="M0-2.29167 251.564-2.29167 251.564 460.028 246.981 460.028 246.981 0 249.272 2.29167 0 2.29167ZM263.022 455.445 249.272 482.945 235.522 455.445Z" transform="matrix(-1.83697e-16 -1 -1 1.83697e-16 3013.45 333.772)"/><path d="M1122.21 159.192 1122.21 82.2084 2006.81 82.2084 2006.81 86.7917 1124.5 86.7917 1126.79 84.5001 1126.79 159.192ZM1138.25 159.192C1138.25 166.786 1132.09 172.942 1124.5 172.942 1116.91 172.942 1110.75 166.786 1110.75 159.192 1110.75 151.598 1116.91 145.442 1124.5 145.442 1132.09 145.442 1138.25 151.598 1138.25 159.192ZM2002.23 70.7501 2029.73 84.5001 2002.23 98.2501Z"/><path d="M2052.5 564C2052.5 555.992 2059.22 549.5 2067.5 549.5 2075.78 549.5 2082.5 555.992 2082.5 564 2082.5 572.008 2075.78 578.5 2067.5 578.5 2059.22 578.5 2052.5 572.008 2052.5 564Z" stroke="#325395" stroke-width="4.58333" stroke-miterlimit="8" fill="#DAE3F3" fill-rule="evenodd"/><path d="M2052.5 613C2052.5 604.992 2059.22 598.5 2067.5 598.5 2075.78 598.5 2082.5 604.992 2082.5 613 2082.5 621.008 2075.78 627.5 2067.5 627.5 2059.22 627.5 2052.5 621.008 2052.5 613Z" stroke="#325395" stroke-width="4.58333" stroke-miterlimit="8" fill="#DAE3F3" fill-rule="evenodd"/><path d="M2115.5 538C2115.5 529.992 2122.22 523.5 2130.5 523.5 2138.78 523.5 2145.5 529.992 2145.5 538 2145.5 546.008 2138.78 552.5 2130.5 552.5 2122.22 552.5 2115.5 546.008 2115.5 538Z" stroke="#325395" stroke-width="4.58333" stroke-miterlimit="8" fill="#DAE3F3" fill-rule="evenodd"/><path d="M2115.5 593.5C2115.5 585.768 2122.22 579.5 2130.5 579.5 2138.78 579.5 2145.5 585.768 2145.5 593.5 2145.5 601.232 2138.78 607.5 2130.5 607.5 2122.22 607.5 2115.5 601.232 2115.5 593.5Z" stroke="#325395" stroke-width="4.58333" stroke-miterlimit="8" fill="#DAE3F3" fill-rule="evenodd"/><path d="M2115.5 648.5C2115.5 640.768 2122.22 634.5 2130.5 634.5 2138.78 634.5 2145.5 640.768 2145.5 648.5 2145.5 656.232 2138.78 662.5 2130.5 662.5 2122.22 662.5 2115.5 656.232 2115.5 648.5Z" stroke="#325395" stroke-width="4.58333" stroke-miterlimit="8" fill="#DAE3F3" fill-rule="evenodd"/><path d="M2179.5 564C2179.5 555.992 2186.22 549.5 2194.5 549.5 2202.78 549.5 2209.5 555.992 2209.5 564 2209.5 572.008 2202.78 578.5 2194.5 578.5 2186.22 578.5 2179.5 572.008 2179.5 564Z" stroke="#325395" stroke-width="4.58333" stroke-miterlimit="8" fill="#DAE3F3" fill-rule="evenodd"/><path d="M2179.5 613C2179.5 604.992 2186.22 598.5 2194.5 598.5 2202.78 598.5 2209.5 604.992 2209.5 613 2209.5 621.008 2202.78 627.5 2194.5 627.5 2186.22 627.5 2179.5 621.008 2179.5 613Z" stroke="#325395" stroke-width="4.58333" stroke-miterlimit="8" fill="#DAE3F3" fill-rule="evenodd"/><path d="M0 0 33.489 25.9276" stroke="#4874CB" stroke-width="4.58333" stroke-miterlimit="8" fill="none" fill-rule="evenodd" transform="matrix(1 0 0 -1 2082.5 564.428)"/><path d="M2082.5 564.5 2115.99 593.879" stroke="#4874CB" stroke-width="4.58333" stroke-miterlimit="8" fill="none" fill-rule="evenodd"/><path d="M2082.5 564.5 2115.99 649.186" stroke="#4874CB" stroke-width="4.58333" stroke-miterlimit="8" fill="none" fill-rule="evenodd"/><path d="M0 0 33.489 74.8798" stroke="#4874CB" stroke-width="4.58333" stroke-miterlimit="8" fill="none" fill-rule="evenodd" transform="matrix(1 0 0 -1 2082.5 613.38)"/><path d="M0 0 33.489 19.573" stroke="#4874CB" stroke-width="4.58333" stroke-miterlimit="8" fill="none" fill-rule="evenodd" transform="matrix(1 0 0 -1 2082.5 613.073)"/><path d="M2082.5 611.5 2115.99 648.371" stroke="#4874CB" stroke-width="4.58333" stroke-miterlimit="8" fill="none" fill-rule="evenodd"/><path d="M2145.5 538.5 2178.99 564.428" stroke="#4874CB" stroke-width="4.58333" stroke-miterlimit="8" fill="none" fill-rule="evenodd"/><path d="M2145.5 538.5 2178.99 613.38" stroke="#4874CB" stroke-width="4.58333" stroke-miterlimit="8" fill="none" fill-rule="evenodd"/><path d="M0 0 33.489 29.3792" stroke="#4874CB" stroke-width="4.58333" stroke-miterlimit="8" fill="none" fill-rule="evenodd" transform="matrix(1 0 0 -1 2145.5 593.879)"/><path d="M2145.5 593.5 2178.99 613.073" stroke="#4874CB" stroke-width="4.58333" stroke-miterlimit="8" fill="none" fill-rule="evenodd"/><path d="M0 0 33.489 84.6859" stroke="#4874CB" stroke-width="4.58333" stroke-miterlimit="8" fill="none" fill-rule="evenodd" transform="matrix(1 0 0 -1 2145.5 649.186)"/><path d="M0 0 32.7405 35.8121" stroke="#4874CB" stroke-width="4.58333" stroke-miterlimit="8" fill="none" fill-rule="evenodd" transform="matrix(1 0 0 -1 2146.5 648.312)"/><path d="M2037.5 531.11C2037.5 522.489 2044.49 515.5 2053.11 515.5L2207.89 515.5C2216.51 515.5 2223.5 522.489 2223.5 531.11L2223.5 654.89C2223.5 663.511 2216.51 670.5 2207.89 670.5L2053.11 670.5C2044.49 670.5 2037.5 663.511 2037.5 654.89Z" stroke="#325395" stroke-width="4.58333" stroke-miterlimit="8" fill="none" fill-rule="evenodd"/><path d="M128.5 1198.5 3211.58 1210.02" stroke="#000000" stroke-width="4.58333" stroke-miterlimit="8" stroke-dasharray="18.3333 13.75" fill="none" fill-rule="evenodd"/><path d="M1686.5 1677.5C1686.5 1669.77 1693.22 1663.5 1701.5 1663.5 1709.78 1663.5 1716.5 1669.77 1716.5 1677.5 1716.5 1685.23 1709.78 1691.5 1701.5 1691.5 1693.22 1691.5 1686.5 1685.23 1686.5 1677.5Z" stroke="#325395" stroke-width="4.58333" stroke-miterlimit="8" fill="#DAE3F3" fill-rule="evenodd"/><path d="M1686.5 1726.5C1686.5 1718.77 1693.22 1712.5 1701.5 1712.5 1709.78 1712.5 1716.5 1718.77 1716.5 1726.5 1716.5 1734.23 1709.78 1740.5 1701.5 1740.5 1693.22 1740.5 1686.5 1734.23 1686.5 1726.5Z" stroke="#325395" stroke-width="4.58333" stroke-miterlimit="8" fill="#DAE3F3" fill-rule="evenodd"/><path d="M1749.5 1651.5C1749.5 1643.77 1756.22 1637.5 1764.5 1637.5 1772.78 1637.5 1779.5 1643.77 1779.5 1651.5 1779.5 1659.23 1772.78 1665.5 1764.5 1665.5 1756.22 1665.5 1749.5 1659.23 1749.5 1651.5Z" stroke="#325395" stroke-width="4.58333" stroke-miterlimit="8" fill="#DAE3F3" fill-rule="evenodd"/><path d="M1749.5 1707C1749.5 1698.99 1756.22 1692.5 1764.5 1692.5 1772.78 1692.5 1779.5 1698.99 1779.5 1707 1779.5 1715.01 1772.78 1721.5 1764.5 1721.5 1756.22 1721.5 1749.5 1715.01 1749.5 1707Z" stroke="#325395" stroke-width="4.58333" stroke-miterlimit="8" fill="#DAE3F3" fill-rule="evenodd"/><path d="M1749.5 1762.5C1749.5 1754.77 1756.22 1748.5 1764.5 1748.5 1772.78 1748.5 1779.5 1754.77 1779.5 1762.5 1779.5 1770.23 1772.78 1776.5 1764.5 1776.5 1756.22 1776.5 1749.5 1770.23 1749.5 1762.5Z" stroke="#325395" stroke-width="4.58333" stroke-miterlimit="8" fill="#DAE3F3" fill-rule="evenodd"/><path d="M1813.5 1677.5C1813.5 1669.77 1820.22 1663.5 1828.5 1663.5 1836.78 1663.5 1843.5 1669.77 1843.5 1677.5 1843.5 1685.23 1836.78 1691.5 1828.5 1691.5 1820.22 1691.5 1813.5 1685.23 1813.5 1677.5Z" stroke="#325395" stroke-width="4.58333" stroke-miterlimit="8" fill="#DAE3F3" fill-rule="evenodd"/><path d="M1813.5 1726.5C1813.5 1718.77 1820.22 1712.5 1828.5 1712.5 1836.78 1712.5 1843.5 1718.77 1843.5 1726.5 1843.5 1734.23 1836.78 1740.5 1828.5 1740.5 1820.22 1740.5 1813.5 1734.23 1813.5 1726.5Z" stroke="#325395" stroke-width="4.58333" stroke-miterlimit="8" fill="#DAE3F3" fill-rule="evenodd"/><path d="M0 0 33.5305 25.9276" stroke="#4874CB" stroke-width="4.58333" stroke-miterlimit="8" fill="none" fill-rule="evenodd" transform="matrix(1 0 0 -1 1716.5 1677.43)"/><path d="M1716.5 1677.5 1750.03 1706.88" stroke="#4874CB" stroke-width="4.58333" stroke-miterlimit="8" fill="none" fill-rule="evenodd"/><path d="M1716.5 1677.5 1750.03 1762.19" stroke="#4874CB" stroke-width="4.58333" stroke-miterlimit="8" fill="none" fill-rule="evenodd"/><path d="M0 0 33.5305 74.8798" stroke="#4874CB" stroke-width="4.58333" stroke-miterlimit="8" fill="none" fill-rule="evenodd" transform="matrix(1 0 0 -1 1716.5 1726.38)"/><path d="M0 0 33.5305 19.573" stroke="#4874CB" stroke-width="4.58333" stroke-miterlimit="8" fill="none" fill-rule="evenodd" transform="matrix(1 0 0 -1 1716.5 1727.07)"/><path d="M1716.5 1725.5 1750.03 1762.37" stroke="#4874CB" stroke-width="4.58333" stroke-miterlimit="8" fill="none" fill-rule="evenodd"/><path d="M1779.5 1651.5 1813.03 1677.43" stroke="#4874CB" stroke-width="4.58333" stroke-miterlimit="8" fill="none" fill-rule="evenodd"/><path d="M1779.5 1651.5 1813.03 1726.38" stroke="#4874CB" stroke-width="4.58333" stroke-miterlimit="8" fill="none" fill-rule="evenodd"/><path d="M0 0 33.5305 29.3792" stroke="#4874CB" stroke-width="4.58333" stroke-miterlimit="8" fill="none" fill-rule="evenodd" transform="matrix(1 0 0 -1 1779.5 1706.88)"/><path d="M1779.5 1707.5 1813.03 1727.07" stroke="#4874CB" stroke-width="4.58333" stroke-miterlimit="8" fill="none" fill-rule="evenodd"/><path d="M0 0 33.5305 84.6859" stroke="#4874CB" stroke-width="4.58333" stroke-miterlimit="8" fill="none" fill-rule="evenodd" transform="matrix(1 0 0 -1 1779.5 1762.19)"/><path d="M0 0 32.7806 35.8121" stroke="#4874CB" stroke-width="4.58333" stroke-miterlimit="8" fill="none" fill-rule="evenodd" transform="matrix(1 0 0 -1 1780.5 1762.31)"/><path d="M1671.5 1644.21C1671.5 1635.53 1678.53 1628.5 1687.21 1628.5L1842.79 1628.5C1851.47 1628.5 1858.5 1635.53 1858.5 1644.21L1858.5 1768.79C1858.5 1777.47 1851.47 1784.5 1842.79 1784.5L1687.21 1784.5C1678.53 1784.5 1671.5 1777.47 1671.5 1768.79Z" stroke="#325395" stroke-width="4.58333" stroke-miterlimit="8" fill="none" fill-rule="evenodd"/><path d="M773.5 1628.5 773.521 1751.86" stroke="#4874CB" stroke-width="4.58333" stroke-miterlimit="8" fill="none" fill-rule="evenodd"/><path d="M780.5 1642.5 780.501 1736.31" stroke="#4874CB" stroke-width="4.58333" stroke-miterlimit="8" fill="none" fill-rule="evenodd"/><path d="M787.5 1658.5 787.5 1720.27" stroke="#4874CB" stroke-width="4.58333" stroke-miterlimit="8" fill="none" fill-rule="evenodd"/><path d="M794.5 1672.5 794.5 1705.21" stroke="#4874CB" stroke-width="4.58333" stroke-miterlimit="8" fill="none" fill-rule="evenodd"/><path d="M801.5 1682.5 801.5 1692.96" stroke="#4874CB" stroke-width="4.58333" stroke-miterlimit="8" fill="none" fill-rule="evenodd"/><path d="M765.5 1642.5 765.5 1736.31" stroke="#4874CB" stroke-width="4.58333" stroke-miterlimit="8" fill="none" fill-rule="evenodd"/><path d="M758.5 1658.5 758.501 1720.27" stroke="#4874CB" stroke-width="4.58333" stroke-miterlimit="8" fill="none" fill-rule="evenodd"/><path d="M751.5 1672.5 751.5 1705.21" stroke="#4874CB" stroke-width="4.58333" stroke-miterlimit="8" fill="none" fill-rule="evenodd"/><path d="M744.5 1682.5 744.5 1692.96" stroke="#4874CB" stroke-width="4.58333" stroke-miterlimit="8" fill="none" fill-rule="evenodd"/><path d="M836.5 1628.5 836.521 1751.86" stroke="#4874CB" stroke-width="4.58333" stroke-miterlimit="8" fill="none" fill-rule="evenodd"/><path d="M843.5 1642.5 843.5 1736.31" stroke="#4874CB" stroke-width="4.58333" stroke-miterlimit="8" fill="none" fill-rule="evenodd"/><path d="M850.5 1658.5 850.5 1720.27" stroke="#4874CB" stroke-width="4.58333" stroke-miterlimit="8" fill="none" fill-rule="evenodd"/><path d="M857.5 1672.5 857.501 1705.21" stroke="#4874CB" stroke-width="4.58333" stroke-miterlimit="8" fill="none" fill-rule="evenodd"/><path d="M864.5 1682.5 864.5 1692.96" stroke="#4874CB" stroke-width="4.58333" stroke-miterlimit="8" fill="none" fill-rule="evenodd"/><path d="M829.5 1642.5 829.5 1736.31" stroke="#4874CB" stroke-width="4.58333" stroke-miterlimit="8" fill="none" fill-rule="evenodd"/><path d="M822.5 1658.5 822.5 1720.27" stroke="#4874CB" stroke-width="4.58333" stroke-miterlimit="8" fill="none" fill-rule="evenodd"/><path d="M815.5 1672.5 815.5 1705.21" stroke="#4874CB" stroke-width="4.58333" stroke-miterlimit="8" fill="none" fill-rule="evenodd"/><path d="M808.5 1682.5 808.5 1692.96" stroke="#4874CB" stroke-width="4.58333" stroke-miterlimit="8" fill="none" fill-rule="evenodd"/><path d="M899.5 1628.5 899.521 1751.86" stroke="#4874CB" stroke-width="4.58333" stroke-miterlimit="8" fill="none" fill-rule="evenodd"/><path d="M906.5 1642.5 906.5 1736.31" stroke="#4874CB" stroke-width="4.58333" stroke-miterlimit="8" fill="none" fill-rule="evenodd"/><path d="M913.5 1658.5 913.5 1720.27" stroke="#4874CB" stroke-width="4.58333" stroke-miterlimit="8" fill="none" fill-rule="evenodd"/><path d="M920.5 1672.5 920.5 1705.21" stroke="#4874CB" stroke-width="4.58333" stroke-miterlimit="8" fill="none" fill-rule="evenodd"/><path d="M927.5 1682.5 927.5 1692.96" stroke="#4874CB" stroke-width="4.58333" stroke-miterlimit="8" fill="none" fill-rule="evenodd"/><path d="M892.5 1642.5 892.5 1736.31" stroke="#4874CB" stroke-width="4.58333" stroke-miterlimit="8" fill="none" fill-rule="evenodd"/><path d="M885.5 1658.5 885.5 1720.27" stroke="#4874CB" stroke-width="4.58333" stroke-miterlimit="8" fill="none" fill-rule="evenodd"/><path d="M878.5 1672.5 878.5 1705.21" stroke="#4874CB" stroke-width="4.58333" stroke-miterlimit="8" fill="none" fill-rule="evenodd"/><path d="M871.5 1682.5 871.5 1692.96" stroke="#4874CB" stroke-width="4.58333" stroke-miterlimit="8" fill="none" fill-rule="evenodd"/><path d="M732.5 1638.83C732.5 1624.29 744.29 1612.5 758.834 1612.5L913.166 1612.5C927.71 1612.5 939.5 1624.29 939.5 1638.83L939.5 1744.17C939.5 1758.71 927.71 1770.5 913.166 1770.5L758.834 1770.5C744.29 1770.5 732.5 1758.71 732.5 1744.17Z" stroke="#000000" stroke-width="4.58333" stroke-miterlimit="8" stroke-dasharray="36.6667 13.75" fill="none" fill-rule="evenodd"/><text font-family="Times New Roman,Times New Roman_MSFontService,sans-serif" font-weight="400" font-size="64" transform="matrix(1 0 0 1 227.655 1486)">Labeled samples </text><text font-family="Times New Roman,Times New Roman_MSFontService,sans-serif" font-weight="400" font-size="64" transform="matrix(1 0 0 1 300.141 1563)">from target </text><text font-family="Times New Roman,Times New Roman_MSFontService,sans-serif" font-weight="400" font-size="64" transform="matrix(1 0 0 1 353.399 1640)">dataset</text><path d="M720.5 1770.5C708.35 1770.5 698.5 1761.53 698.5 1750.47L698.5 1599.03C698.5 1587.97 688.65 1579 676.5 1579 688.65 1579 698.5 1570.03 698.5 1558.97L698.5 1407.53C698.5 1396.47 708.35 1387.5 720.5 1387.5" stroke="#000000" stroke-width="4.58333" stroke-miterlimit="8" fill="none" fill-rule="evenodd"/><path d="M737.5 1385.83C737.5 1371.29 749.29 1359.5 763.834 1359.5L918.166 1359.5C932.71 1359.5 944.5 1371.29 944.5 1385.83L944.5 1491.17C944.5 1505.71 932.71 1517.5 918.166 1517.5L763.834 1517.5C749.29 1517.5 737.5 1505.71 737.5 1491.17Z" stroke="#000000" stroke-width="4.58333" stroke-miterlimit="8" stroke-dasharray="36.6667 13.75" fill="none" fill-rule="evenodd"/><rect x="752.5" y="1488.5" width="16.0002" height="10" stroke="#EE822F" stroke-width="4.58333" stroke-miterlimit="8" fill="#EE822F"/><rect x="784.5" y="1449.5" width="16.0002" height="48.9998" stroke="#EE822F" stroke-width="4.58333" stroke-miterlimit="8" fill="#EE822F"/><rect x="817.5" y="1377.5" width="16.0002" height="121" stroke="#EE822F" stroke-width="4.58333" stroke-miterlimit="8" fill="#EE822F"/><rect x="850.5" y="1472.5" width="16.0002" height="25.9998" stroke="#EE822F" stroke-width="4.58333" stroke-miterlimit="8" fill="#EE822F"/><rect x="883.5" y="1423.5" width="16.0002" height="74.9999" stroke="#EE822F" stroke-width="4.58333" stroke-miterlimit="8" fill="#EE822F"/><rect x="915.5" y="1457.5" width="17.0002" height="39.9999" stroke="#EE822F" stroke-width="4.58333" stroke-miterlimit="8" fill="#EE822F"/><rect x="2129.5" y="1548.5" width="105" height="324" stroke="#192D54" stroke-width="4.58333" stroke-miterlimit="8" fill="#91ACE0"/><path d="M2679.5 1715.21 2842.52 1715.21 2842.52 1719.79 2679.5 1719.79ZM2837.93 1703.75 2865.43 1717.5 2837.93 1731.25Z"/><path d="M2237.52 1712.21 2464.88 1714.34 2464.84 1718.92 2237.48 1716.79ZM2460.41 1702.84 2487.77 1716.85 2460.15 1730.34Z"/><path d="M2178.18 1678.59C2180.26 1678.59 2182.22 1678.78 2184.05 1679.15L2182.65 1685.4 2178.61 1685.4C2178.53 1684.11 2178.32 1683.19 2177.99 1682.65 2177.66 1682.11 2177.14 1681.84 2176.43 1681.84 2175.59 1681.84 2174.92 1682.13 2174.4 1682.71 2173.88 1683.3 2173.44 1684.09 2173.08 1685.09 2172.73 1686.09 2172.38 1687.4 2172.02 1689.03L2171.24 1692.46 2177.93 1692.46 2177.08 1696.37 2170.36 1696.37 2164.71 1722.49C2163.6 1727.56 2161.82 1731.31 2159.36 1733.76 2156.91 1736.21 2153.83 1737.43 2150.15 1737.43 2149.25 1737.43 2148.53 1737.38 2147.99 1737.28L2148.74 1733.78C2149.16 1733.84 2149.53 1733.87 2149.86 1733.87 2151.05 1733.87 2152.04 1733.21 2152.82 1731.9 2153.6 1730.59 2154.29 1728.62 2154.9 1725.99L2161.58 1696.37 2156.86 1696.37 2157.43 1693.84C2158.86 1693.82 2159.88 1693.71 2160.47 1693.53 2161.07 1693.34 2161.56 1692.99 2161.94 1692.49 2162.33 1691.99 2162.7 1691.07 2163.05 1689.71 2163.57 1687.73 2164.23 1686.09 2165.02 1684.79 2165.81 1683.49 2166.84 1682.35 2168.11 1681.38 2169.39 1680.42 2170.87 1679.71 2172.57 1679.26 2174.27 1678.81 2176.14 1678.59 2178.18 1678.59Z" fill-rule="evenodd"/><text fill="#000000" fill-opacity="0" font-family="Arial,Arial_MSFontService,sans-serif" font-size="58.8438" x="2147.99" y="1730.08">ğ’‡</text><path d="M2192.91 1713.12C2194.04 1713.12 2194.91 1713.49 2195.53 1714.23 2196.15 1714.97 2196.46 1715.95 2196.46 1717.16 2196.46 1717.46 2196.44 1717.78 2196.38 1718.12 2196.33 1718.46 2196.23 1718.78 2196.1 1719.08L2196.42 1719.2C2197.9 1717.16 2199.37 1715.64 2200.81 1714.63 2202.26 1713.62 2203.75 1713.12 2205.3 1713.12 2206.92 1713.12 2208.13 1713.55 2208.94 1714.42 2209.74 1715.3 2210.14 1716.52 2210.14 1718.1 2210.14 1718.57 2210.07 1719.23 2209.93 1720.07 2209.8 1720.91 2209.62 1721.83 2209.41 1722.82 2209.19 1723.82 2208.96 1724.84 2208.72 1725.89 2208.47 1726.94 2208.24 1727.9 2208.03 1728.79 2207.82 1729.68 2207.64 1730.44 2207.5 1731.06 2207.36 1731.69 2207.29 1732.08 2207.29 1732.23 2207.29 1732.81 2207.4 1733.24 2207.62 1733.5 2207.83 1733.76 2208.17 1733.89 2208.65 1733.89 2208.94 1733.89 2209.23 1733.83 2209.51 1733.73 2209.79 1733.62 2210.09 1733.45 2210.39 1733.22 2210.7 1732.99 2211.04 1732.7 2211.4 1732.34 2211.77 1731.98 2212.18 1731.55 2212.64 1731.04L2214.23 1732.55C2213.48 1733.32 2212.79 1733.98 2212.16 1734.53 2211.53 1735.08 2210.92 1735.53 2210.34 1735.89 2209.75 1736.25 2209.16 1736.52 2208.58 1736.7 2208 1736.87 2207.38 1736.96 2206.72 1736.96 2206.17 1736.96 2205.66 1736.85 2205.2 1736.64 2204.73 1736.43 2204.33 1736.13 2203.99 1735.76 2203.65 1735.38 2203.39 1734.94 2203.21 1734.43 2203.03 1733.91 2202.93 1733.35 2202.93 1732.74 2202.93 1732.13 2203 1731.41 2203.13 1730.59 2203.26 1729.77 2203.45 1728.88 2203.71 1727.9 2203.99 1726.9 2204.25 1725.95 2204.48 1725.04 2204.72 1724.13 2204.93 1723.29 2205.1 1722.51 2205.28 1721.74 2205.42 1721.05 2205.52 1720.45 2205.62 1719.84 2205.67 1719.34 2205.67 1718.95 2205.67 1718 2205.49 1717.3 2205.13 1716.86 2204.77 1716.41 2204.19 1716.19 2203.39 1716.19 2202.93 1716.19 2202.44 1716.31 2201.91 1716.55 2201.39 1716.78 2200.85 1717.11 2200.32 1717.53 2199.78 1717.96 2199.26 1718.45 2198.75 1719.03 2198.23 1719.6 2197.76 1720.21 2197.33 1720.86 2196.91 1721.51 2196.53 1722.19 2196.2 1722.9 2195.87 1723.62 2195.63 1724.32 2195.48 1725.03L2192.91 1736.55 2188.41 1736.55 2191.85 1721.59C2192.05 1720.79 2192.19 1720.08 2192.29 1719.45 2192.38 1718.82 2192.42 1718.31 2192.42 1717.91 2192.42 1716.8 2191.97 1716.24 2191.07 1716.24 2190.79 1716.24 2190.52 1716.3 2190.23 1716.41 2189.95 1716.52 2189.65 1716.7 2189.34 1716.93 2189.02 1717.16 2188.68 1717.45 2188.32 1717.8 2187.95 1718.15 2187.54 1718.56 2187.08 1719.04L2185.49 1717.55C2186.26 1716.77 2186.96 1716.1 2187.59 1715.54 2188.23 1714.98 2188.83 1714.52 2189.41 1714.16 2189.98 1713.8 2190.55 1713.54 2191.12 1713.37 2191.68 1713.2 2192.28 1713.12 2192.91 1713.12Z" fill-rule="evenodd"/><text fill="#000000" fill-opacity="0" font-family="Arial,Arial_MSFontService,sans-serif" font-size="23.8442" x="2185.49" y="1733.98">ğ‘›</text><path d="M2505.5 1680C2505.5 1671.99 2512.22 1665.5 2520.5 1665.5 2528.78 1665.5 2535.5 1671.99 2535.5 1680 2535.5 1688.01 2528.78 1694.5 2520.5 1694.5 2512.22 1694.5 2505.5 1688.01 2505.5 1680Z" stroke="#325395" stroke-width="4.58333" stroke-miterlimit="8" fill="#FADBDF" fill-rule="evenodd"/><path d="M2505.5 1729C2505.5 1720.99 2512.22 1714.5 2520.5 1714.5 2528.78 1714.5 2535.5 1720.99 2535.5 1729 2535.5 1737.01 2528.78 1743.5 2520.5 1743.5 2512.22 1743.5 2505.5 1737.01 2505.5 1729Z" stroke="#325395" stroke-width="4.58333" stroke-miterlimit="8" fill="#FADBDF" fill-rule="evenodd"/><path d="M2568.5 1654C2568.5 1645.99 2575.22 1639.5 2583.5 1639.5 2591.78 1639.5 2598.5 1645.99 2598.5 1654 2598.5 1662.01 2591.78 1668.5 2583.5 1668.5 2575.22 1668.5 2568.5 1662.01 2568.5 1654Z" stroke="#325395" stroke-width="4.58333" stroke-miterlimit="8" fill="#FADBDF" fill-rule="evenodd"/><path d="M2568.5 1709.5C2568.5 1701.77 2575.22 1695.5 2583.5 1695.5 2591.78 1695.5 2598.5 1701.77 2598.5 1709.5 2598.5 1717.23 2591.78 1723.5 2583.5 1723.5 2575.22 1723.5 2568.5 1717.23 2568.5 1709.5Z" stroke="#325395" stroke-width="4.58333" stroke-miterlimit="8" fill="#FADBDF" fill-rule="evenodd"/><path d="M2568.5 1764.5C2568.5 1756.77 2575.22 1750.5 2583.5 1750.5 2591.78 1750.5 2598.5 1756.77 2598.5 1764.5 2598.5 1772.23 2591.78 1778.5 2583.5 1778.5 2575.22 1778.5 2568.5 1772.23 2568.5 1764.5Z" stroke="#325395" stroke-width="4.58333" stroke-miterlimit="8" fill="#FADBDF" fill-rule="evenodd"/><path d="M2632.5 1680C2632.5 1671.99 2639.22 1665.5 2647.5 1665.5 2655.78 1665.5 2662.5 1671.99 2662.5 1680 2662.5 1688.01 2655.78 1694.5 2647.5 1694.5 2639.22 1694.5 2632.5 1688.01 2632.5 1680Z" stroke="#325395" stroke-width="4.58333" stroke-miterlimit="8" fill="#FADBDF" fill-rule="evenodd"/><path d="M2632.5 1729C2632.5 1720.99 2639.22 1714.5 2647.5 1714.5 2655.78 1714.5 2662.5 1720.99 2662.5 1729 2662.5 1737.01 2655.78 1743.5 2647.5 1743.5 2639.22 1743.5 2632.5 1737.01 2632.5 1729Z" stroke="#325395" stroke-width="4.58333" stroke-miterlimit="8" fill="#FADBDF" fill-rule="evenodd"/><path d="M0 0 33.5305 25.9276" stroke="#4874CB" stroke-width="4.58333" stroke-miterlimit="8" fill="none" fill-rule="evenodd" transform="matrix(1 0 0 -1 2535.5 1680.43)"/><path d="M2535.5 1679.5 2569.03 1708.88" stroke="#4874CB" stroke-width="4.58333" stroke-miterlimit="8" fill="none" fill-rule="evenodd"/><path d="M2535.5 1679.5 2569.03 1764.19" stroke="#4874CB" stroke-width="4.58333" stroke-miterlimit="8" fill="none" fill-rule="evenodd"/><path d="M0 0 33.5305 74.8798" stroke="#4874CB" stroke-width="4.58333" stroke-miterlimit="8" fill="none" fill-rule="evenodd" transform="matrix(1 0 0 -1 2535.5 1729.38)"/><path d="M0 0 33.5305 19.573" stroke="#4874CB" stroke-width="4.58333" stroke-miterlimit="8" fill="none" fill-rule="evenodd" transform="matrix(1 0 0 -1 2535.5 1729.07)"/><path d="M2535.5 1727.5 2569.03 1764.37" stroke="#4874CB" stroke-width="4.58333" stroke-miterlimit="8" fill="none" fill-rule="evenodd"/><path d="M2598.5 1654.5 2632.03 1680.43" stroke="#4874CB" stroke-width="4.58333" stroke-miterlimit="8" fill="none" fill-rule="evenodd"/><path d="M2598.5 1654.5 2632.03 1729.38" stroke="#4874CB" stroke-width="4.58333" stroke-miterlimit="8" fill="none" fill-rule="evenodd"/><path d="M0 0 33.5305 29.3792" stroke="#4874CB" stroke-width="4.58333" stroke-miterlimit="8" fill="none" fill-rule="evenodd" transform="matrix(1 0 0 -1 2598.5 1708.88)"/><path d="M2598.5 1709.5 2632.03 1729.07" stroke="#4874CB" stroke-width="4.58333" stroke-miterlimit="8" fill="none" fill-rule="evenodd"/><path d="M0 0 33.5305 84.6859" stroke="#4874CB" stroke-width="4.58333" stroke-miterlimit="8" fill="none" fill-rule="evenodd" transform="matrix(1 0 0 -1 2598.5 1764.19)"/><path d="M0 0 32.7806 35.8121" stroke="#4874CB" stroke-width="4.58333" stroke-miterlimit="8" fill="none" fill-rule="evenodd" transform="matrix(1 0 0 -1 2599.5 1764.31)"/><path d="M2490.5 1647.11C2490.5 1638.49 2497.49 1631.5 2506.11 1631.5L2660.89 1631.5C2669.51 1631.5 2676.5 1638.49 2676.5 1647.11L2676.5 1770.89C2676.5 1779.51 2669.51 1786.5 2660.89 1786.5L2506.11 1786.5C2497.49 1786.5 2490.5 1779.51 2490.5 1770.89Z" stroke="#325395" stroke-width="4.58333" stroke-miterlimit="8" fill="none" fill-rule="evenodd"/><path d="M2873.5 1659.83C2873.5 1645.29 2885.29 1633.5 2899.83 1633.5L3055.17 1633.5C3069.71 1633.5 3081.5 1645.29 3081.5 1659.83L3081.5 1765.17C3081.5 1779.71 3069.71 1791.5 3055.17 1791.5L2899.83 1791.5C2885.29 1791.5 2873.5 1779.71 2873.5 1765.17Z" stroke="#000000" stroke-width="4.58333" stroke-miterlimit="8" stroke-dasharray="36.6667 13.75" fill="none" fill-rule="evenodd"/><rect x="2888.5" y="1762.5" width="15.9998" height="10" stroke="#4874CB" stroke-width="4.58333" stroke-miterlimit="8" fill="#4874CB"/><rect x="2921.5" y="1723.5" width="15.9998" height="48.9998" stroke="#4874CB" stroke-width="4.58333" stroke-miterlimit="8" fill="#4874CB"/><rect x="2954.5" y="1650.5" width="15.9998" height="122" stroke="#4874CB" stroke-width="4.58333" stroke-miterlimit="8" fill="#4874CB"/><rect x="2986.5" y="1746.5" width="16.0002" height="25.9998" stroke="#4874CB" stroke-width="4.58333" stroke-miterlimit="8" fill="#4874CB"/><rect x="3019.5" y="1697.5" width="16.0002" height="74.9999" stroke="#4874CB" stroke-width="4.58333" stroke-miterlimit="8" fill="#4874CB"/><rect x="3052.5" y="1731.5" width="16.0002" height="39.9999" stroke="#4874CB" stroke-width="4.58333" stroke-miterlimit="8" fill="#4874CB"/><path d="M1864.5 1712.21 2098.13 1712.21 2098.13 1716.79 1864.5 1716.79ZM2093.55 1700.75 2121.05 1714.5 2093.55 1728.25Z"/><path d="M1651.5 1287.33C1651.5 1278.04 1659.04 1270.5 1668.33 1270.5L2165.67 1270.5C2174.96 1270.5 2182.5 1278.04 2182.5 1287.33L2182.5 1354.67C2182.5 1363.96 2174.96 1371.5 2165.67 1371.5L1668.33 1371.5C1659.04 1371.5 1651.5 1363.96 1651.5 1354.67Z" stroke="#FF0000" stroke-width="4.58333" stroke-miterlimit="8" fill="none" fill-rule="evenodd"/><text font-family="Times New Roman,Times New Roman_MSFontService,sans-serif" font-weight="400" font-size="64" transform="matrix(1 0 0 1 1857.39 1344)">CLS</text><path d="M836.208 1353.08 836.208 1312.21 1625.68 1312.21 1625.68 1316.79 838.5 1316.79 840.791 1314.5 840.791 1353.08ZM1621.1 1300.75 1648.6 1314.5 1621.1 1328.25Z"/><path d="M0-2.29167 314.594-2.29167 314.594 772.589 310.011 772.589 310.011 0 312.302 2.29167 0 2.29167ZM326.052 768.006 312.302 795.506 298.552 768.006Z" transform="matrix(-1.83697e-16 -1 -1 1.83697e-16 2981.01 1626.8)"/><text font-family="Times New Roman,Times New Roman_MSFontService,sans-serif" font-weight="400" font-size="64" transform="matrix(1 0 0 1 181.94 297)">Pretext task (pretrain)</text><text font-family="Times New Roman,Times New Roman_MSFontService,sans-serif" font-weight="400" font-size="64" transform="matrix(1 0 0 1 240.268 1288)">Downstream task</text><text font-family="Times New Roman,Times New Roman_MSFontService,sans-serif" font-weight="400" font-size="64" transform="matrix(1 0 0 1 241.689 1365)">(fine</text><text font-family="Times New Roman,Times New Roman_MSFontService,sans-serif" font-weight="400" font-size="64" transform="matrix(1 0 0 1 362.574 1365)">-</text><text font-family="Times New Roman,Times New Roman_MSFontService,sans-serif" font-weight="400" font-size="64" transform="matrix(1 0 0 1 383.772 1365)">tune &amp; test)</text><text font-family="Microsoft YaHei,Microsoft YaHei_MSFontService,sans-serif" font-weight="400" font-size="55" transform="matrix(1 0 0 1 1461.07 230)">STFT</text><path d="M2.29166-0.00670075 2.45382 55.4517-2.1295 55.4651-2.29166 0.00670075ZM13.8987 50.8349 0.229167 78.375-13.6012 50.9153Z" transform="matrix(-1 0 0 1 2356.73 852.5)"/><path d="M2606.93 742.203 2405.5 741.792 2405.5 737.208 2606.94 737.62ZM2602.38 726.152 2629.85 739.958 2602.33 753.652Z"/><rect x="2307.5" y="333.5" width="109" height="519" stroke="#192D54" stroke-width="4.58333" stroke-miterlimit="8" fill="#91ACE0"/><path d="M2307.5 592.5 2416.58 592.5" stroke="#404040" stroke-width="4.58333" stroke-miterlimit="8" stroke-dasharray="18.3333 13.75" fill="none" fill-rule="evenodd"/><text font-family="Microsoft YaHei,Microsoft YaHei_MSFontService,sans-serif" font-weight="400" font-size="64" transform="matrix(1 0 0 1 1103.91 684)">Ï€</text><text font-family="Microsoft YaHei,Microsoft YaHei_MSFontService,sans-serif" font-weight="400" font-size="64" transform="matrix(1 0 0 1 1062.08 906)">3Ï€/2</text><text font-family="Microsoft YaHei,Microsoft YaHei_MSFontService,sans-serif" font-weight="400" font-size="64" transform="matrix(1 0 0 1 1105.45 238)">0</text><text font-family="Times New Roman,Times New Roman_MSFontService,sans-serif" font-weight="400" font-size="64" transform="matrix(1 0 0 1 1114.29 1022)">r</text><path d="M2342.33 423.525C2344.42 423.525 2346.37 423.712 2348.21 424.087L2346.8 430.337 2342.77 430.337C2342.69 429.045 2342.48 428.129 2342.15 427.587 2341.81 427.045 2341.29 426.775 2340.58 426.775 2339.75 426.775 2339.07 427.066 2338.55 427.65 2338.03 428.233 2337.59 429.025 2337.24 430.025 2336.89 431.025 2336.53 432.337 2336.18 433.962L2335.4 437.4 2342.08 437.4 2341.24 441.306 2334.52 441.306 2328.86 467.431C2327.76 472.493 2325.98 476.248 2323.52 478.696 2321.06 481.144 2317.99 482.368 2314.3 482.368 2313.41 482.368 2312.69 482.316 2312.15 482.212L2312.9 478.712C2313.31 478.775 2313.69 478.806 2314.02 478.806 2315.21 478.806 2316.19 478.15 2316.97 476.837 2317.75 475.525 2318.45 473.556 2319.05 470.931L2325.74 441.306 2321.02 441.306 2321.58 438.775C2323.02 438.754 2324.04 438.65 2324.63 438.462 2325.22 438.275 2325.71 437.931 2326.1 437.431 2326.48 436.931 2326.85 436.004 2327.21 434.65 2327.73 432.67 2328.39 431.03 2329.18 429.728 2329.97 428.426 2331 427.29 2332.27 426.321 2333.54 425.353 2335.03 424.644 2336.72 424.196 2338.42 423.748 2340.29 423.525 2342.33 423.525Z" fill-rule="evenodd"/><text fill="#000000" fill-opacity="0" font-family="Arial,Arial_MSFontService,sans-serif" font-size="58.8438" x="2312.15" y="475.013">ğ’‡</text><path d="M2357.06 458.054C2358.19 458.054 2359.07 458.425 2359.69 459.167 2360.31 459.909 2360.62 460.884 2360.62 462.093 2360.62 462.399 2360.59 462.72 2360.54 463.057 2360.48 463.393 2360.39 463.715 2360.25 464.021L2360.57 464.135C2362.06 462.1 2363.52 460.578 2364.97 459.568 2366.41 458.559 2367.91 458.054 2369.45 458.054 2371.08 458.054 2372.29 458.49 2373.09 459.362 2373.89 460.234 2374.3 461.458 2374.3 463.034 2374.3 463.508 2374.23 464.166 2374.09 465.007 2373.95 465.849 2373.78 466.767 2373.56 467.761 2373.35 468.756 2373.12 469.777 2372.87 470.825 2372.63 471.873 2372.4 472.841 2372.19 473.728 2371.97 474.615 2371.79 475.373 2371.66 476 2371.52 476.627 2371.45 477.017 2371.45 477.17 2371.45 477.752 2371.56 478.173 2371.77 478.433 2371.99 478.693 2372.33 478.823 2372.8 478.823 2373.1 478.823 2373.38 478.769 2373.67 478.662 2373.95 478.555 2374.24 478.387 2374.55 478.157 2374.85 477.928 2375.19 477.633 2375.56 477.274 2375.93 476.914 2376.34 476.482 2376.8 475.977L2378.38 477.492C2377.63 478.257 2376.94 478.915 2376.32 479.465 2375.69 480.016 2375.08 480.471 2374.49 480.831 2373.9 481.19 2373.32 481.458 2372.74 481.634 2372.15 481.81 2371.53 481.898 2370.88 481.898 2370.33 481.898 2369.82 481.791 2369.35 481.577 2368.88 481.363 2368.48 481.068 2368.15 480.693 2367.81 480.318 2367.55 479.875 2367.37 479.362 2367.18 478.85 2367.09 478.287 2367.09 477.675 2367.09 477.063 2367.16 476.348 2367.29 475.53 2367.42 474.711 2367.61 473.812 2367.87 472.833 2368.15 471.839 2368.4 470.886 2368.64 469.976 2368.88 469.066 2369.08 468.224 2369.26 467.451 2369.44 466.679 2369.57 465.99 2369.67 465.386 2369.77 464.782 2369.82 464.281 2369.82 463.883 2369.82 462.934 2369.64 462.238 2369.28 461.794 2368.92 461.351 2368.34 461.129 2367.55 461.129 2367.09 461.129 2366.6 461.248 2366.07 461.485 2365.54 461.722 2365.01 462.051 2364.47 462.471 2363.94 462.892 2363.41 463.389 2362.9 463.963 2362.39 464.537 2361.92 465.149 2361.49 465.799 2361.06 466.449 2360.68 467.13 2360.35 467.842 2360.03 468.553 2359.78 469.261 2359.63 469.964L2357.06 481.485 2352.56 481.485 2356.01 466.522C2356.2 465.726 2356.35 465.015 2356.44 464.388 2356.53 463.76 2356.58 463.248 2356.58 462.85 2356.58 461.733 2356.13 461.175 2355.23 461.175 2354.95 461.175 2354.67 461.232 2354.39 461.347 2354.1 461.462 2353.81 461.634 2353.49 461.863 2353.18 462.093 2352.84 462.384 2352.47 462.735 2352.1 463.087 2351.69 463.5 2351.23 463.975L2349.65 462.483C2350.41 461.703 2351.11 461.033 2351.75 460.475 2352.38 459.916 2352.99 459.457 2353.56 459.098 2354.14 458.738 2354.71 458.475 2355.27 458.306 2355.84 458.138 2356.43 458.054 2357.06 458.054Z" fill-rule="evenodd"/><text fill="#000000" fill-opacity="0" font-family="Arial,Arial_MSFontService,sans-serif" font-size="23.8442" x="2349.65" y="478.917">ğ‘›</text><path d="M2382.95 476.161 2386.97 476.161C2387.18 477.232 2387.29 478.287 2387.29 479.328 2387.29 480.399 2387.1 481.378 2386.74 482.265 2386.37 483.153 2385.78 484.036 2384.98 484.916 2384.18 485.796 2383.07 486.763 2381.66 487.819L2380.43 486.419C2381.21 485.685 2381.77 485.023 2382.12 484.434 2382.48 483.845 2382.73 483.176 2382.88 482.426 2383.03 481.676 2383.11 480.735 2383.11 479.603 2383.11 478.44 2383.06 477.293 2382.95 476.161Z" fill-rule="evenodd"/><text fill="#000000" fill-opacity="0" font-family="Arial,Arial_MSFontService,sans-serif" font-size="11.6582" x="2380.43" y="486.362">,</text><path d="M2397.97 458.054C2399.1 458.054 2399.98 458.425 2400.6 459.167 2401.22 459.909 2401.52 460.884 2401.52 462.093 2401.52 462.781 2401.42 463.393 2401.2 463.929L2401.52 464.066C2403.07 462.001 2404.57 460.483 2406.03 459.511 2407.5 458.54 2409 458.054 2410.54 458.054 2411.13 458.054 2411.67 458.084 2412.18 458.146 2412.7 458.207 2413.19 458.283 2413.67 458.375L2412.49 463.929 2409.83 463.929C2409.76 463.011 2409.56 462.353 2409.25 461.955 2408.93 461.557 2408.48 461.358 2407.88 461.358 2407.53 461.343 2407.12 461.45 2406.67 461.68 2406.21 461.909 2405.72 462.238 2405.21 462.667 2404.7 463.095 2404.19 463.6 2403.68 464.181 2403.18 464.763 2402.7 465.398 2402.25 466.086 2401.8 466.774 2401.4 467.505 2401.07 468.278 2400.73 469.05 2400.48 469.827 2400.31 470.607L2397.97 481.485 2393.47 481.485 2396.91 466.522C2397.13 465.635 2397.28 464.9 2397.36 464.319 2397.44 463.738 2397.49 463.248 2397.49 462.85 2397.49 461.733 2397.03 461.175 2396.13 461.175 2395.84 461.175 2395.55 461.232 2395.27 461.347 2394.99 461.462 2394.69 461.634 2394.39 461.863 2394.08 462.093 2393.75 462.384 2393.38 462.735 2393.01 463.087 2392.6 463.5 2392.14 463.975L2390.56 462.483C2391.32 461.703 2392.02 461.033 2392.66 460.475 2393.29 459.916 2393.9 459.457 2394.48 459.098 2395.06 458.738 2395.63 458.475 2396.2 458.306 2396.77 458.138 2397.36 458.054 2397.97 458.054Z" fill-rule="evenodd"/><text fill="#000000" fill-opacity="0" font-family="Arial,Arial_MSFontService,sans-serif" font-size="23.4312" x="2390.56" y="478.556">ğ‘Ÿ</text><path d="M2362.82 415.351 2364.22 415.351C2364.19 416.193 2364.17 416.946 2364.15 417.612 2364.14 418.277 2364.13 418.924 2364.12 419.551 2364.11 420.178 2364.11 420.798 2364.11 421.41L2364.11 438.851C2364.11 439.326 2364.12 439.735 2364.15 440.079 2364.19 440.423 2364.24 440.714 2364.3 440.951 2364.37 441.188 2364.46 441.391 2364.58 441.559 2364.69 441.728 2364.83 441.873 2364.98 441.995 2365.16 442.179 2365.41 442.32 2365.72 442.42 2366.02 442.519 2366.41 442.604 2366.89 442.672 2367.36 442.741 2367.93 442.795 2368.6 442.833 2369.26 442.871 2370.06 442.898 2370.99 442.913L2370.99 444.91 2352.79 444.91 2352.79 442.913C2353.7 442.883 2354.46 442.848 2355.09 442.81 2355.72 442.772 2356.25 442.718 2356.7 442.649 2357.14 442.581 2357.5 442.504 2357.76 442.42 2358.03 442.336 2358.26 442.233 2358.46 442.11 2358.68 441.972 2358.86 441.823 2359.01 441.663 2359.17 441.502 2359.29 441.299 2359.38 441.054 2359.47 440.81 2359.55 440.511 2359.6 440.159 2359.65 439.808 2359.68 439.371 2359.68 438.851L2359.68 422.397C2359.68 421.8 2359.56 421.379 2359.34 421.135 2359.11 420.89 2358.78 420.767 2358.35 420.767 2357.87 420.767 2357.17 421.012 2356.24 421.502 2355.3 421.991 2354.1 422.718 2352.61 423.682 2352.41 423.33 2352.23 422.978 2352.06 422.626 2351.89 422.274 2351.72 421.915 2351.53 421.548 2353.43 420.507 2355.31 419.471 2357.17 418.438 2359.03 417.405 2360.91 416.376 2362.82 415.351Z" fill-rule="evenodd"/><text fill="#000000" fill-opacity="0" font-family="Arial,Arial_MSFontService,sans-serif" font-size="29.5586" x="2351.53" y="441.215">1</text><path d="M2340.5 700.129C2342.58 700.129 2344.54 700.317 2346.37 700.692L2344.97 706.942 2340.94 706.942C2340.85 705.65 2340.65 704.733 2340.31 704.192 2339.98 703.65 2339.46 703.379 2338.75 703.379 2337.92 703.379 2337.24 703.671 2336.72 704.254 2336.2 704.837 2335.76 705.629 2335.41 706.629 2335.05 707.629 2334.7 708.942 2334.34 710.567L2333.56 714.004 2340.25 714.004 2339.41 717.91 2332.69 717.91 2327.03 744.035C2325.93 749.098 2324.15 752.853 2321.69 755.301 2319.23 757.749 2316.16 758.973 2312.47 758.973 2311.57 758.973 2310.85 758.921 2310.31 758.817L2311.06 755.317C2311.48 755.379 2311.85 755.41 2312.19 755.41 2313.37 755.41 2314.36 754.754 2315.14 753.442 2315.92 752.129 2316.61 750.16 2317.22 747.535L2323.91 717.91 2319.19 717.91 2319.75 715.379C2321.19 715.358 2322.2 715.254 2322.8 715.067 2323.39 714.879 2323.88 714.535 2324.27 714.035 2324.65 713.535 2325.02 712.608 2325.37 711.254 2325.9 709.275 2326.55 707.634 2327.34 706.332 2328.14 705.03 2329.17 703.895 2330.44 702.926 2331.71 701.957 2333.19 701.249 2334.89 700.801 2336.59 700.353 2338.46 700.129 2340.5 700.129Z" fill-rule="evenodd"/><text fill="#000000" fill-opacity="0" font-family="Arial,Arial_MSFontService,sans-serif" font-size="58.8438" x="2310.31" y="751.617">ğ’‡</text><path d="M2355.23 734.658C2356.36 734.658 2357.24 735.029 2357.86 735.771 2358.48 736.513 2358.79 737.489 2358.79 738.697 2358.79 739.003 2358.76 739.325 2358.7 739.661 2358.65 739.998 2358.56 740.319 2358.42 740.625L2358.74 740.74C2360.22 738.705 2361.69 737.183 2363.13 736.173 2364.58 735.163 2366.08 734.658 2367.62 734.658 2369.24 734.658 2370.45 735.094 2371.26 735.966 2372.06 736.838 2372.46 738.062 2372.46 739.638 2372.46 740.113 2372.39 740.77 2372.26 741.612 2372.12 742.453 2371.94 743.371 2371.73 744.366 2371.51 745.36 2371.28 746.381 2371.04 747.43 2370.8 748.478 2370.57 749.445 2370.35 750.333 2370.14 751.22 2369.96 751.977 2369.82 752.605 2369.69 753.232 2369.62 753.622 2369.62 753.775 2369.62 754.356 2369.72 754.777 2369.94 755.037 2370.15 755.297 2370.5 755.427 2370.97 755.427 2371.26 755.427 2371.55 755.374 2371.83 755.267 2372.11 755.16 2372.41 754.991 2372.72 754.762 2373.02 754.532 2373.36 754.238 2373.73 753.878 2374.09 753.519 2374.51 753.086 2374.96 752.582L2376.55 754.096C2375.8 754.861 2375.11 755.519 2374.48 756.07 2373.86 756.621 2373.25 757.076 2372.66 757.435 2372.07 757.795 2371.48 758.063 2370.9 758.239 2370.32 758.415 2369.7 758.503 2369.04 758.503 2368.49 758.503 2367.98 758.395 2367.52 758.181 2367.05 757.967 2366.65 757.672 2366.31 757.298 2365.98 756.923 2365.72 756.479 2365.53 755.967 2365.35 755.454 2365.26 754.892 2365.26 754.28 2365.26 753.668 2365.32 752.953 2365.45 752.134 2365.58 751.316 2365.78 750.417 2366.04 749.438 2366.31 748.443 2366.57 747.491 2366.81 746.58 2367.04 745.67 2367.25 744.829 2367.43 744.056 2367.6 743.283 2367.74 742.595 2367.84 741.991 2367.94 741.386 2367.99 740.885 2367.99 740.487 2367.99 739.539 2367.81 738.843 2367.45 738.399 2367.09 737.955 2366.51 737.733 2365.72 737.733 2365.26 737.733 2364.76 737.852 2364.24 738.089 2363.71 738.326 2363.18 738.655 2362.64 739.076 2362.11 739.497 2361.58 739.994 2361.07 740.568 2360.56 741.141 2360.09 741.753 2359.66 742.404 2359.23 743.054 2358.85 743.735 2358.52 744.446 2358.19 745.158 2357.95 745.865 2357.8 746.569L2355.23 758.089 2350.73 758.089 2354.17 743.127C2354.37 742.331 2354.52 741.62 2354.61 740.992 2354.7 740.365 2354.75 739.852 2354.75 739.455 2354.75 738.338 2354.29 737.779 2353.39 737.779 2353.12 737.779 2352.84 737.837 2352.55 737.951 2352.27 738.066 2351.97 738.238 2351.66 738.468 2351.35 738.697 2351.01 738.988 2350.64 739.34 2350.27 739.692 2349.86 740.105 2349.4 740.579L2347.82 739.087C2348.58 738.307 2349.28 737.638 2349.92 737.079 2350.55 736.521 2351.15 736.062 2351.73 735.702 2352.3 735.343 2352.87 735.079 2353.44 734.911 2354 734.742 2354.6 734.658 2355.23 734.658Z" fill-rule="evenodd"/><text fill="#000000" fill-opacity="0" font-family="Arial,Arial_MSFontService,sans-serif" font-size="23.8442" x="2347.82" y="755.522">ğ‘›</text><path d="M2381.12 752.765 2385.13 752.765C2385.35 753.836 2385.45 754.892 2385.45 755.932 2385.45 757.003 2385.27 757.982 2384.9 758.87 2384.54 759.757 2383.95 760.641 2383.15 761.52 2382.34 762.4 2381.24 763.368 2379.83 764.423L2378.59 763.023C2379.37 762.289 2379.94 761.627 2380.29 761.038 2380.64 760.449 2380.89 759.78 2381.05 759.03 2381.2 758.281 2381.28 757.34 2381.28 756.208 2381.28 755.045 2381.22 753.897 2381.12 752.765Z" fill-rule="evenodd"/><text fill="#000000" fill-opacity="0" font-family="Arial,Arial_MSFontService,sans-serif" font-size="11.6582" x="2378.59" y="762.966">,</text><path d="M2396.13 734.658C2397.27 734.658 2398.14 735.029 2398.76 735.771 2399.38 736.513 2399.69 737.489 2399.69 738.697 2399.69 739.386 2399.58 739.998 2399.37 740.533L2399.69 740.671C2401.24 738.606 2402.74 737.087 2404.2 736.116 2405.66 735.144 2407.17 734.658 2408.71 734.658 2409.29 734.658 2409.84 734.689 2410.35 734.75 2410.86 734.811 2411.36 734.888 2411.83 734.98L2410.66 740.533 2408 740.533C2407.92 739.615 2407.73 738.957 2407.41 738.56 2407.1 738.162 2406.65 737.963 2406.05 737.963 2405.7 737.948 2405.29 738.055 2404.83 738.284 2404.37 738.514 2403.89 738.843 2403.37 739.271 2402.86 739.699 2402.35 740.204 2401.85 740.786 2401.34 741.367 2400.87 742.002 2400.41 742.69 2399.96 743.379 2399.57 744.109 2399.23 744.882 2398.9 745.655 2398.64 746.431 2398.48 747.211L2396.13 758.089 2391.64 758.089 2395.08 743.127C2395.29 742.239 2395.44 741.505 2395.53 740.923 2395.61 740.342 2395.65 739.852 2395.65 739.455 2395.65 738.338 2395.2 737.779 2394.3 737.779 2394.01 737.779 2393.72 737.837 2393.44 737.951 2393.15 738.066 2392.86 738.238 2392.55 738.468 2392.25 738.697 2391.91 738.988 2391.54 739.34 2391.18 739.692 2390.76 740.105 2390.31 740.579L2388.72 739.087C2389.49 738.307 2390.19 737.638 2390.82 737.079 2391.46 736.521 2392.06 736.062 2392.65 735.702 2393.23 735.343 2393.8 735.079 2394.37 734.911 2394.93 734.742 2395.52 734.658 2396.13 734.658Z" fill-rule="evenodd"/><text fill="#000000" fill-opacity="0" font-family="Arial,Arial_MSFontService,sans-serif" font-size="23.4312" x="2388.72" y="755.161">ğ‘Ÿ</text><path d="M2360.58 691.795C2362.17 691.795 2363.52 691.975 2364.65 692.334 2365.77 692.694 2366.69 693.18 2367.39 693.792 2368.09 694.404 2368.6 695.138 2368.92 695.995 2369.23 696.852 2369.39 697.777 2369.39 698.772 2369.39 699.368 2369.35 699.923 2369.26 700.436 2369.18 700.948 2369.03 701.453 2368.83 701.95 2368.62 702.447 2368.35 702.948 2368.01 703.453 2367.67 703.958 2367.25 704.494 2366.75 705.06 2366.37 705.549 2365.87 706.115 2365.26 706.758 2364.64 707.401 2363.98 708.089 2363.25 708.823 2362.52 709.558 2361.76 710.323 2360.97 711.118 2360.17 711.914 2359.4 712.702 2358.65 713.482 2357.9 714.262 2357.21 715.02 2356.58 715.754 2355.95 716.489 2355.44 717.162 2355.04 717.774L2363.54 717.774C2364.25 717.774 2364.83 717.747 2365.26 717.693 2365.69 717.64 2366.04 717.521 2366.32 717.338 2366.61 717.154 2366.85 716.875 2367.05 716.5 2367.25 716.125 2367.48 715.609 2367.74 714.951L2369.87 714.951C2369.79 716.037 2369.72 717.131 2369.65 718.233 2369.58 719.334 2369.51 720.428 2369.43 721.514L2350 721.514 2350 720.321C2350.36 719.495 2350.79 718.68 2351.28 717.877 2351.77 717.074 2352.32 716.259 2352.93 715.433 2353.55 714.607 2354.24 713.754 2355.02 712.874 2355.8 711.994 2356.67 711.08 2357.61 710.132 2359.05 708.693 2360.22 707.466 2361.13 706.448 2362.03 705.431 2362.74 704.524 2363.26 703.729 2363.78 702.933 2364.14 702.199 2364.33 701.526 2364.52 700.852 2364.61 700.133 2364.61 699.368 2364.61 698.588 2364.5 697.869 2364.28 697.211 2364.06 696.553 2363.74 695.995 2363.33 695.536 2362.92 695.077 2362.39 694.717 2361.76 694.457 2361.12 694.197 2360.39 694.067 2359.57 694.067 2358.14 694.067 2356.95 694.453 2355.99 695.226 2355.02 695.999 2354.27 697.119 2353.74 698.588L2350.73 698.588 2350.73 694.113C2352.69 693.302 2354.49 692.713 2356.13 692.346 2357.78 691.979 2359.26 691.795 2360.58 691.795Z" fill-rule="evenodd"/><text fill="#000000" fill-opacity="0" font-family="Arial,Arial_MSFontService,sans-serif" font-size="29.7192" x="2350" y="717.799">2</text><path d="M2673.71 717.706C2675.79 717.706 2677.75 717.893 2679.58 718.268L2678.18 724.518 2674.15 724.518C2674.06 723.227 2673.85 722.31 2673.52 721.768 2673.19 721.227 2672.67 720.956 2671.96 720.956 2671.12 720.956 2670.45 721.247 2669.93 721.831 2669.41 722.414 2668.97 723.206 2668.61 724.206 2668.26 725.206 2667.91 726.518 2667.55 728.143L2666.77 731.581 2673.46 731.581 2672.61 735.487 2665.9 735.487 2660.24 761.612C2659.14 766.674 2657.35 770.43 2654.9 772.878 2652.44 775.326 2649.36 776.549 2645.68 776.549 2644.78 776.549 2644.06 776.497 2643.52 776.393L2644.27 772.893C2644.69 772.956 2645.06 772.987 2645.4 772.987 2646.58 772.987 2647.57 772.331 2648.35 771.018 2649.13 769.706 2649.82 767.737 2650.43 765.112L2657.11 735.487 2652.4 735.487 2652.96 732.956C2654.4 732.935 2655.41 732.831 2656 732.643 2656.6 732.456 2657.09 732.112 2657.47 731.612 2657.86 731.112 2658.23 730.185 2658.58 728.831 2659.1 726.852 2659.76 725.211 2660.55 723.909 2661.34 722.607 2662.37 721.471 2663.65 720.503 2664.92 719.534 2666.4 718.826 2668.1 718.378 2669.8 717.93 2671.67 717.706 2673.71 717.706Z" fill-rule="evenodd"/><text fill="#000000" fill-opacity="0" font-family="Arial,Arial_MSFontService,sans-serif" font-size="58.8438" x="2643.52" y="769.194">ğ’‡</text><path d="M2688.44 752.441C2689.57 752.441 2690.44 752.812 2691.06 753.554 2691.68 754.296 2691.99 755.272 2691.99 756.48 2691.99 756.786 2691.97 757.108 2691.91 757.444 2691.86 757.781 2691.76 758.102 2691.63 758.408L2691.95 758.523C2693.43 756.488 2694.9 754.966 2696.34 753.956 2697.79 752.946 2699.28 752.441 2700.83 752.441 2702.45 752.441 2703.66 752.877 2704.47 753.749 2705.27 754.621 2705.67 755.845 2705.67 757.421 2705.67 757.896 2705.6 758.553 2705.46 759.395 2705.33 760.236 2705.15 761.154 2704.94 762.149 2704.72 763.143 2704.49 764.164 2704.25 765.212 2704 766.26 2703.77 767.228 2703.56 768.116 2703.35 769.003 2703.17 769.76 2703.03 770.388 2702.89 771.015 2702.83 771.405 2702.83 771.558 2702.83 772.139 2702.93 772.56 2703.15 772.82 2703.36 773.08 2703.71 773.21 2704.18 773.21 2704.47 773.21 2704.76 773.157 2705.04 773.05 2705.32 772.943 2705.62 772.774 2705.92 772.545 2706.23 772.315 2706.57 772.021 2706.93 771.661 2707.3 771.302 2707.71 770.869 2708.17 770.365L2709.76 771.879C2709.01 772.644 2708.32 773.302 2707.69 773.853 2707.06 774.404 2706.46 774.859 2705.87 775.218 2705.28 775.578 2704.69 775.846 2704.11 776.022 2703.53 776.198 2702.91 776.285 2702.25 776.285 2701.7 776.285 2701.19 776.178 2700.73 775.964 2700.26 775.75 2699.86 775.455 2699.52 775.081 2699.18 774.706 2698.92 774.262 2698.74 773.75 2698.56 773.237 2698.47 772.675 2698.47 772.063 2698.47 771.451 2698.53 770.736 2698.66 769.917 2698.79 769.099 2698.99 768.2 2699.25 767.221 2699.52 766.226 2699.78 765.274 2700.01 764.363 2700.25 763.453 2700.46 762.612 2700.63 761.839 2700.81 761.066 2700.95 760.378 2701.05 759.773 2701.15 759.169 2701.2 758.668 2701.2 758.27 2701.2 757.322 2701.02 756.626 2700.66 756.182 2700.3 755.738 2699.72 755.516 2698.92 755.516 2698.47 755.516 2697.97 755.635 2697.44 755.872 2696.92 756.109 2696.38 756.438 2695.85 756.859 2695.31 757.28 2694.79 757.777 2694.28 758.351 2693.76 758.924 2693.29 759.536 2692.87 760.187 2692.44 760.837 2692.06 761.518 2691.73 762.229 2691.4 762.94 2691.16 763.648 2691.01 764.352L2688.44 775.872 2683.94 775.872 2687.38 760.909C2687.58 760.114 2687.73 759.402 2687.82 758.775 2687.91 758.148 2687.95 757.635 2687.95 757.238 2687.95 756.121 2687.5 755.562 2686.6 755.562 2686.33 755.562 2686.05 755.62 2685.76 755.734 2685.48 755.849 2685.18 756.021 2684.87 756.251 2684.55 756.48 2684.21 756.771 2683.85 757.123 2683.48 757.475 2683.07 757.888 2682.61 758.362L2681.02 756.87C2681.79 756.09 2682.49 755.421 2683.12 754.862 2683.76 754.304 2684.36 753.845 2684.94 753.485 2685.51 753.126 2686.08 752.862 2686.65 752.694 2687.21 752.525 2687.81 752.441 2688.44 752.441Z" fill-rule="evenodd"/><text fill="#000000" fill-opacity="0" font-family="Arial,Arial_MSFontService,sans-serif" font-size="23.8442" x="2681.02" y="773.305">ğ‘›</text><path d="M2693.78 708.891C2695.37 708.891 2696.73 709.07 2697.86 709.43 2698.98 709.79 2699.9 710.275 2700.6 710.887 2701.3 711.499 2701.81 712.234 2702.13 713.09 2702.44 713.947 2702.6 714.873 2702.6 715.867 2702.6 716.464 2702.55 717.019 2702.47 717.531 2702.39 718.044 2702.24 718.548 2702.03 719.046 2701.83 719.543 2701.56 720.044 2701.22 720.549 2700.88 721.054 2700.46 721.589 2699.96 722.155 2699.57 722.645 2699.08 723.211 2698.47 723.854 2697.85 724.496 2697.18 725.185 2696.46 725.919 2695.73 726.653 2694.97 727.418 2694.17 728.214 2693.38 729.01 2692.61 729.797 2691.86 730.578 2691.11 731.358 2690.42 732.115 2689.79 732.85 2689.16 733.584 2688.65 734.257 2688.25 734.869L2696.74 734.869C2697.46 734.869 2698.04 734.842 2698.47 734.789 2698.89 734.735 2699.25 734.617 2699.53 734.433 2699.82 734.25 2700.06 733.97 2700.26 733.596 2700.45 733.221 2700.68 732.704 2700.94 732.046L2703.08 732.046C2703 733.133 2702.93 734.227 2702.86 735.328 2702.79 736.43 2702.72 737.524 2702.64 738.61L2683.2 738.61 2683.2 737.417C2683.57 736.59 2684 735.776 2684.49 734.972 2684.98 734.169 2685.53 733.355 2686.14 732.528 2686.75 731.702 2687.45 730.849 2688.23 729.97 2689.01 729.09 2689.87 728.176 2690.82 727.227 2692.26 725.789 2693.43 724.561 2694.33 723.544 2695.24 722.526 2695.95 721.62 2696.47 720.824 2696.99 720.029 2697.34 719.294 2697.54 718.621 2697.73 717.948 2697.82 717.229 2697.82 716.464 2697.82 715.684 2697.71 714.965 2697.49 714.307 2697.27 713.649 2696.95 713.09 2696.54 712.631 2696.12 712.172 2695.6 711.813 2694.97 711.553 2694.33 711.293 2693.6 711.163 2692.77 711.163 2691.35 711.163 2690.16 711.549 2689.19 712.322 2688.23 713.094 2687.48 714.215 2686.94 715.684L2683.94 715.684 2683.94 711.209C2685.9 710.398 2687.7 709.809 2689.34 709.441 2690.99 709.074 2692.47 708.891 2693.78 708.891Z" fill-rule="evenodd"/><text fill="#000000" fill-opacity="0" font-family="Arial,Arial_MSFontService,sans-serif" font-size="29.7192" x="2683.2" y="734.895">2</text><path d="M2644.01 698.854 2665.14 698.854 2671.54 698.854 2686.27 698.854 2692.67 698.854 2713.8 698.854 2713.8 702.166 2692.67 702.166 2686.27 702.166 2671.54 702.166 2665.14 702.166 2644.01 702.166Z" fill-rule="evenodd"/><path d="M3007.33 713.285C3009.41 713.285 3011.37 713.473 3013.2 713.848L3011.8 720.098 3007.77 720.098C3007.68 718.806 3007.48 717.889 3007.14 717.348 3006.81 716.806 3006.29 716.535 3005.58 716.535 3004.75 716.535 3004.07 716.827 3003.55 717.41 3003.03 717.993 3002.59 718.785 3002.24 719.785 3001.88 720.785 3001.53 722.098 3001.17 723.723L3000.39 727.16 3007.08 727.16 3006.24 731.066 2999.52 731.066 2993.86 757.191C2992.76 762.254 2990.98 766.009 2988.52 768.457 2986.06 770.905 2982.99 772.129 2979.3 772.129 2978.4 772.129 2977.68 772.077 2977.14 771.973L2977.89 768.473C2978.31 768.535 2978.68 768.566 2979.02 768.566 2980.2 768.566 2981.19 767.91 2981.97 766.598 2982.75 765.285 2983.44 763.316 2984.05 760.691L2990.74 731.066 2986.02 731.066 2986.58 728.535C2988.02 728.514 2989.03 728.41 2989.63 728.223 2990.22 728.035 2990.71 727.691 2991.1 727.191 2991.48 726.691 2991.85 725.764 2992.2 724.41 2992.73 722.431 2993.38 720.79 2994.17 719.488 2994.97 718.186 2996 717.051 2997.27 716.082 2998.54 715.113 3000.02 714.405 3001.72 713.957 3003.42 713.509 3005.29 713.285 3007.33 713.285Z" fill-rule="evenodd"/><text fill="#000000" fill-opacity="0" font-family="Arial,Arial_MSFontService,sans-serif" font-size="58.8438" x="2977.14" y="764.773">ğ’‡</text><path d="M2993.47 700.621 2997.66 700.621 3008.6 708.527 3007.38 710.308 2995.91 704.652 2995.57 704.652 2983.85 710.308 2982.63 708.527Z" fill-rule="evenodd"/><text fill="#000000" fill-opacity="0" font-family="Arial,Arial_MSFontService,sans-serif" font-size="9.6875" x="2982.63" y="709.097">à· </text><path d="M3022.06 747.814C3023.19 747.814 3024.07 748.185 3024.69 748.927 3025.31 749.669 3025.62 750.645 3025.62 751.854 3025.62 752.159 3025.59 752.481 3025.53 752.817 3025.48 753.154 3025.39 753.475 3025.25 753.781L3025.57 753.896C3027.05 751.861 3028.52 750.339 3029.96 749.329 3031.41 748.319 3032.91 747.814 3034.45 747.814 3036.07 747.814 3037.28 748.25 3038.09 749.123 3038.89 749.995 3039.29 751.219 3039.29 752.794 3039.29 753.269 3039.22 753.927 3039.09 754.768 3038.95 755.61 3038.77 756.528 3038.56 757.522 3038.34 758.516 3038.11 759.538 3037.87 760.586 3037.63 761.634 3037.4 762.601 3037.18 763.489 3036.97 764.376 3036.79 765.133 3036.65 765.761 3036.52 766.388 3036.45 766.778 3036.45 766.931 3036.45 767.513 3036.55 767.933 3036.77 768.193 3036.98 768.453 3037.33 768.583 3037.8 768.583 3038.09 768.583 3038.38 768.53 3038.66 768.423 3038.94 768.316 3039.24 768.147 3039.55 767.918 3039.85 767.688 3040.19 767.394 3040.56 767.034 3040.92 766.675 3041.34 766.243 3041.79 765.738L3043.38 767.252C3042.63 768.017 3041.94 768.675 3041.31 769.226 3040.69 769.777 3040.08 770.232 3039.49 770.592 3038.9 770.951 3038.31 771.219 3037.73 771.395 3037.15 771.571 3036.53 771.659 3035.87 771.659 3035.32 771.659 3034.81 771.552 3034.35 771.337 3033.88 771.123 3033.48 770.829 3033.14 770.454 3032.81 770.079 3032.55 769.635 3032.36 769.123 3032.18 768.61 3032.09 768.048 3032.09 767.436 3032.09 766.824 3032.15 766.109 3032.28 765.29 3032.41 764.472 3032.61 763.573 3032.87 762.594 3033.14 761.599 3033.4 760.647 3033.64 759.737 3033.87 758.826 3034.08 757.985 3034.26 757.212 3034.43 756.44 3034.57 755.751 3034.67 755.147 3034.77 754.542 3034.82 754.041 3034.82 753.644 3034.82 752.695 3034.64 751.999 3034.28 751.555 3033.92 751.112 3033.34 750.89 3032.55 750.89 3032.09 750.89 3031.59 751.008 3031.07 751.245 3030.54 751.482 3030.01 751.811 3029.47 752.232 3028.94 752.653 3028.41 753.15 3027.9 753.724 3027.39 754.298 3026.92 754.91 3026.49 755.56 3026.06 756.21 3025.68 756.891 3025.35 757.602 3025.02 758.314 3024.78 759.021 3024.63 759.725L3022.06 771.246 3017.56 771.246 3021 756.283C3021.2 755.487 3021.35 754.776 3021.44 754.148 3021.53 753.521 3021.58 753.009 3021.58 752.611 3021.58 751.494 3021.12 750.936 3020.22 750.936 3019.95 750.936 3019.67 750.993 3019.38 751.108 3019.1 751.222 3018.8 751.395 3018.49 751.624 3018.18 751.854 3017.84 752.144 3017.47 752.496 3017.1 752.848 3016.69 753.261 3016.23 753.735L3014.65 752.244C3015.41 751.463 3016.11 750.794 3016.75 750.236 3017.38 749.677 3017.98 749.218 3018.56 748.859 3019.13 748.499 3019.7 748.235 3020.27 748.067 3020.83 747.899 3021.43 747.814 3022.06 747.814Z" fill-rule="evenodd"/><text fill="#000000" fill-opacity="0" font-family="Arial,Arial_MSFontService,sans-serif" font-size="23.8442" x="3014.65" y="768.678">ğ‘›</text><path d="M3047.95 765.921 3051.96 765.921C3052.18 766.992 3052.28 768.048 3052.28 769.088 3052.28 770.159 3052.1 771.138 3051.73 772.026 3051.37 772.913 3050.78 773.797 3049.98 774.677 3049.17 775.556 3048.07 776.524 3046.66 777.58L3045.42 776.18C3046.2 775.445 3046.77 774.784 3047.12 774.195 3047.47 773.606 3047.72 772.936 3047.88 772.187 3048.03 771.437 3048.11 770.496 3048.11 769.364 3048.11 768.201 3048.05 767.054 3047.95 765.921Z" fill-rule="evenodd"/><text fill="#000000" fill-opacity="0" font-family="Arial,Arial_MSFontService,sans-serif" font-size="11.6582" x="3045.42" y="776.122">,</text><path d="M3062.96 747.814C3064.1 747.814 3064.97 748.185 3065.59 748.927 3066.21 749.669 3066.52 750.645 3066.52 751.854 3066.52 752.542 3066.41 753.154 3066.2 753.689L3066.52 753.827C3068.07 751.762 3069.57 750.243 3071.03 749.272 3072.49 748.3 3074 747.814 3075.54 747.814 3076.12 747.814 3076.67 747.845 3077.18 747.906 3077.69 747.967 3078.19 748.044 3078.66 748.136L3077.49 753.689 3074.83 753.689C3074.75 752.771 3074.56 752.114 3074.24 751.716 3073.93 751.318 3073.48 751.119 3072.88 751.119 3072.53 751.104 3072.12 751.211 3071.66 751.44 3071.2 751.67 3070.72 751.999 3070.2 752.427 3069.69 752.856 3069.18 753.361 3068.68 753.942 3068.17 754.523 3067.7 755.158 3067.24 755.847 3066.79 756.535 3066.4 757.266 3066.06 758.038 3065.73 758.811 3065.47 759.587 3065.31 760.368L3062.96 771.246 3058.47 771.246 3061.91 756.283C3062.12 755.395 3062.27 754.661 3062.36 754.08 3062.44 753.498 3062.48 753.009 3062.48 752.611 3062.48 751.494 3062.03 750.936 3061.13 750.936 3060.84 750.936 3060.55 750.993 3060.27 751.108 3059.98 751.222 3059.69 751.395 3059.38 751.624 3059.08 751.854 3058.74 752.144 3058.37 752.496 3058.01 752.848 3057.59 753.261 3057.14 753.735L3055.55 752.244C3056.32 751.463 3057.02 750.794 3057.65 750.236 3058.29 749.677 3058.89 749.218 3059.48 748.859 3060.06 748.499 3060.63 748.235 3061.2 748.067 3061.76 747.899 3062.35 747.814 3062.96 747.814Z" fill-rule="evenodd"/><text fill="#000000" fill-opacity="0" font-family="Arial,Arial_MSFontService,sans-serif" font-size="23.4312" x="3055.55" y="768.317">ğ‘Ÿ</text><path d="M3027.41 704.951C3029 704.951 3030.35 705.131 3031.48 705.491 3032.6 705.85 3033.52 706.336 3034.22 706.948 3034.93 707.56 3035.43 708.294 3035.75 709.151 3036.06 710.008 3036.22 710.933 3036.22 711.928 3036.22 712.525 3036.18 713.079 3036.09 713.592 3036.01 714.104 3035.86 714.609 3035.66 715.106 3035.45 715.604 3035.18 716.105 3034.84 716.61 3034.5 717.114 3034.08 717.65 3033.58 718.216 3033.2 718.706 3032.7 719.272 3032.09 719.914 3031.47 720.557 3030.81 721.245 3030.08 721.98 3029.35 722.714 3028.59 723.479 3027.8 724.275 3027 725.07 3026.23 725.858 3025.48 726.638 3024.73 727.419 3024.04 728.176 3023.41 728.91 3022.78 729.645 3022.27 730.318 3021.87 730.93L3030.37 730.93C3031.08 730.93 3031.66 730.903 3032.09 730.85 3032.52 730.796 3032.87 730.677 3033.15 730.494 3033.44 730.31 3033.68 730.031 3033.88 729.656 3034.08 729.281 3034.31 728.765 3034.57 728.107L3036.7 728.107C3036.62 729.193 3036.55 730.287 3036.48 731.389 3036.41 732.49 3036.34 733.584 3036.26 734.671L3016.83 734.671 3016.83 733.477C3017.19 732.651 3017.62 731.836 3018.11 731.033 3018.6 730.23 3019.15 729.415 3019.76 728.589 3020.38 727.763 3021.07 726.91 3021.85 726.03 3022.63 725.151 3023.5 724.236 3024.44 723.288 3025.88 721.85 3027.05 720.622 3027.96 719.604 3028.86 718.587 3029.57 717.681 3030.09 716.885 3030.61 716.089 3030.97 715.355 3031.16 714.682 3031.35 714.009 3031.44 713.29 3031.44 712.525 3031.44 711.744 3031.33 711.025 3031.11 710.367 3030.89 709.709 3030.57 709.151 3030.16 708.692 3029.75 708.233 3029.22 707.874 3028.59 707.613 3027.95 707.353 3027.22 707.223 3026.4 707.223 3024.97 707.223 3023.78 707.61 3022.82 708.382 3021.85 709.155 3021.1 710.276 3020.57 711.744L3017.56 711.744 3017.56 707.269C3019.52 706.458 3021.32 705.869 3022.96 705.502 3024.61 705.135 3026.09 704.951 3027.41 704.951Z" fill-rule="evenodd"/><text fill="#000000" fill-opacity="0" font-family="Arial,Arial_MSFontService,sans-serif" font-size="29.7192" x="3016.83" y="730.956">2</text><path d="M1663.5 190.667C1663.5 177.32 1674.32 166.5 1687.67 166.5L1784.33 166.5C1797.68 166.5 1808.5 177.32 1808.5 190.667L1808.5 287.333C1808.5 300.68 1797.68 311.5 1784.33 311.5L1687.67 311.5C1674.32 311.5 1663.5 300.68 1663.5 287.333Z" stroke="#91ACE0" stroke-width="4.58333" stroke-miterlimit="8" fill="#5B9BD5" fill-rule="evenodd"/><path d="M1649.5 206.501C1649.5 193.245 1660.25 182.5 1673.5 182.5L1769.5 182.5C1782.75 182.5 1793.5 193.245 1793.5 206.501L1793.5 303.5C1793.5 316.755 1782.75 327.5 1769.5 327.5L1673.5 327.5C1660.25 327.5 1649.5 316.755 1649.5 303.5Z" stroke="#91ACE0" stroke-width="4.58333" stroke-miterlimit="8" fill="#5B9BD5" fill-rule="evenodd"/><path d="M1433.5 258.208 1624.66 258.209 1624.66 262.792 1433.5 262.792ZM1620.07 246.75 1647.57 260.5 1620.07 274.25Z"/><text font-family="Microsoft YaHei,Microsoft YaHei_MSFontService,sans-serif" font-weight="400" font-size="64" transform="matrix(1 0 0 1 1083.63 450)">Ï€/2</text><path d="M1662.5 428.667C1662.5 415.32 1673.32 404.5 1686.67 404.5L1783.33 404.5C1796.68 404.5 1807.5 415.32 1807.5 428.667L1807.5 525.333C1807.5 538.68 1796.68 549.5 1783.33 549.5L1686.67 549.5C1673.32 549.5 1662.5 538.68 1662.5 525.333Z" stroke="#E3F2D9" stroke-width="4.58333" stroke-miterlimit="8" fill="#FFE083" fill-rule="evenodd"/><path d="M1647.5 444.667C1647.5 431.32 1658.32 420.5 1671.67 420.5L1768.33 420.5C1781.68 420.5 1792.5 431.32 1792.5 444.667L1792.5 541.333C1792.5 554.68 1781.68 565.5 1768.33 565.5L1671.67 565.5C1658.32 565.5 1647.5 554.68 1647.5 541.333Z" stroke="#E3F2D9" stroke-width="4.58333" stroke-miterlimit="8" fill="#FFE083" fill-rule="evenodd"/><text font-family="Microsoft YaHei,Microsoft YaHei_MSFontService,sans-serif" font-weight="400" font-size="55" transform="matrix(1 0 0 1 1459.96 461)">STFT</text><path d="M1662.5 657.501C1662.5 644.245 1673.25 633.5 1686.5 633.5L1783.5 633.5C1796.75 633.5 1807.5 644.245 1807.5 657.501L1807.5 753.5C1807.5 766.755 1796.75 777.5 1783.5 777.5L1686.5 777.5C1673.25 777.5 1662.5 766.755 1662.5 753.5Z" stroke="#B7D5A2" stroke-width="4.58333" stroke-miterlimit="8" fill="#70AD47" fill-rule="evenodd"/><path d="M1647.5 672.667C1647.5 659.32 1658.32 648.5 1671.67 648.5L1768.33 648.5C1781.68 648.5 1792.5 659.32 1792.5 672.667L1792.5 769.333C1792.5 782.68 1781.68 793.5 1768.33 793.5L1671.67 793.5C1658.32 793.5 1647.5 782.68 1647.5 769.333Z" stroke="#B7D5A2" stroke-width="4.58333" stroke-miterlimit="8" fill="#70AD47" fill-rule="evenodd"/><text font-family="Microsoft YaHei,Microsoft YaHei_MSFontService,sans-serif" font-weight="400" font-size="55" transform="matrix(1 0 0 1 1474.14 685)">STFT</text><path d="M1662.5 885.667C1662.5 872.32 1673.32 861.5 1686.67 861.5L1783.33 861.5C1796.68 861.5 1807.5 872.32 1807.5 885.667L1807.5 982.333C1807.5 995.68 1796.68 1006.5 1783.33 1006.5L1686.67 1006.5C1673.32 1006.5 1662.5 995.68 1662.5 982.333Z" stroke="#F8CDAC" stroke-width="4.58333" stroke-miterlimit="8" fill="#FF7F7F" fill-rule="evenodd"/><path d="M1647.5 901.501C1647.5 888.246 1658.25 877.5 1671.5 877.5L1768.5 877.5C1781.75 877.5 1792.5 888.246 1792.5 901.501L1792.5 997.5C1792.5 1010.75 1781.75 1021.5 1768.5 1021.5L1671.5 1021.5C1658.25 1021.5 1647.5 1010.75 1647.5 997.5Z" stroke="#F8CDAC" stroke-width="4.58333" stroke-miterlimit="8" fill="#FF7F7F" fill-rule="evenodd"/><text font-family="Microsoft YaHei,Microsoft YaHei_MSFontService,sans-serif" font-weight="400" font-size="55" transform="matrix(1 0 0 1 1464.84 918)">STFT</text><path d="M1807.5 948.5 1922.36 948.5" stroke="#000000" stroke-width="4.58333" stroke-miterlimit="8" fill="none" fill-rule="evenodd"/><path d="M1921.5 250.5 1921.5 949.985" stroke="#000000" stroke-width="4.58333" stroke-miterlimit="8" fill="none" fill-rule="evenodd"/><path d="M1921.5 594.208 2015.8 594.208 2015.8 598.792 1921.5 598.792ZM2011.22 582.75 2038.72 596.5 2011.22 610.25Z"/><text font-family="Microsoft YaHei,Microsoft YaHei_MSFontService,sans-serif" font-weight="400" font-size="55" transform="matrix(1 0 0 1 1056.63 1690)">STFT</text><path d="M1280.5 1652.5C1280.5 1639.25 1291.25 1628.5 1304.5 1628.5L1400.5 1628.5C1413.75 1628.5 1424.5 1639.25 1424.5 1652.5L1424.5 1748.5C1424.5 1761.75 1413.75 1772.5 1400.5 1772.5L1304.5 1772.5C1291.25 1772.5 1280.5 1761.75 1280.5 1748.5Z" stroke="#91ACE0" stroke-width="4.58333" stroke-miterlimit="8" fill="#5B9BD5" fill-rule="evenodd"/><path d="M1265.5 1667.5C1265.5 1654.25 1276.25 1643.5 1289.5 1643.5L1385.5 1643.5C1398.75 1643.5 1409.5 1654.25 1409.5 1667.5L1409.5 1764.5C1409.5 1777.75 1398.75 1788.5 1385.5 1788.5L1289.5 1788.5C1276.25 1788.5 1265.5 1777.75 1265.5 1764.5Z" stroke="#91ACE0" stroke-width="4.58333" stroke-miterlimit="8" fill="#5B9BD5" fill-rule="evenodd"/><path d="M1426.5 1711.21 1646.39 1711.21 1646.39 1715.79 1426.5 1715.79ZM1641.81 1699.75 1669.31 1713.5 1641.81 1727.25Z"/><path d="M943.5 1705.21 1234.75 1705.21 1234.75 1709.79 943.5 1709.79ZM1230.16 1693.75 1257.66 1707.5 1230.16 1721.25Z"/><g clip-path="url(#clip0)"><g clip-path="url(#clip1)"><g clip-path="url(#clip2)"><path d="M2461.16 611.528C2460.66 617.288 2455.58 621.549 2449.82 621.045 2444.06 620.541 2439.8 615.463 2440.3 609.704 2440.81 603.944 2445.89 599.683 2451.64 600.187 2457.4 600.691 2461.67 605.769 2461.16 611.528M2455.95 611.072C2456.2 608.192 2454.07 605.654 2451.19 605.402 2448.31 605.15 2445.77 607.28 2445.52 610.16 2445.27 613.04 2447.4 615.578 2450.28 615.83 2453.16 616.082 2455.69 613.952 2455.95 611.072" fill="#404040" fill-rule="evenodd"/><path d="M2463.44 585.457C2462.94 591.216 2457.86 595.477 2452.1 594.973 2446.34 594.469 2442.08 589.391 2442.58 583.632 2443.09 577.872 2448.17 573.611 2453.93 574.115 2459.69 574.619 2463.95 579.697 2463.44 585.457M2458.23 585C2458.48 582.12 2456.35 579.582 2453.47 579.33 2450.59 579.078 2448.05 581.208 2447.8 584.088 2447.55 586.968 2449.68 589.507 2452.56 589.758 2455.44 590.01 2457.98 587.88 2458.23 585" fill="#404040" fill-rule="evenodd"/><path d="M2427.36 595.409 2399.83 585.388C2401.8 579.955 2407.81 577.154 2413.24 579.131L2437.84 588.082C2440.21 588.947 2442.08 590.582 2443.27 592.602 2444.48 594.513 2444.95 595.954 2444.68 596.924 2444.78 597.927 2444.06 599.264 2442.54 600.937 2441.02 602.72 2438.89 604.005 2436.41 604.444L2410.63 608.988C2404.94 609.992 2399.51 606.191 2398.5 600.497L2427.36 595.409Z" fill="#404040" fill-rule="evenodd"/><path d="M2439.68 601.768C2438.96 601.705 2438.43 601.07 2438.49 600.35 2438.56 599.63 2439.19 599.098 2439.91 599.161L2450.34 600.073C2451.06 600.136 2451.59 600.771 2451.53 601.491 2451.47 602.211 2450.83 602.743 2450.11 602.68L2439.68 601.768Z" fill="#404040" fill-rule="evenodd"/><path d="M2440.37 593.946C2439.65 593.883 2439.12 593.249 2439.18 592.529 2439.24 591.809 2439.88 591.276 2440.6 591.339L2451.03 592.252C2451.75 592.315 2452.28 592.949 2452.22 593.669 2452.15 594.389 2451.52 594.922 2450.8 594.859L2440.37 593.946Z" fill="#404040" fill-rule="evenodd"/></g></g></g><path d="M1433.5 486.208 1624.66 486.209 1624.66 490.792 1433.5 490.792ZM1620.07 474.75 1647.57 488.5 1620.07 502.25Z"/><path d="M1433.5 714.208 1624.66 714.209 1624.66 718.792 1433.5 718.792ZM1620.07 702.75 1647.57 716.5 1620.07 730.25Z"/><path d="M1433.5 941.208 1624.66 941.209 1624.66 945.792 1433.5 945.792ZM1620.07 929.75 1647.57 943.5 1620.07 957.25Z"/><path d="M1807.5 719.5 1922.36 719.5" stroke="#000000" stroke-width="4.58333" stroke-miterlimit="8" fill="none" fill-rule="evenodd"/><path d="M1807.5 250.5 1922.36 250.5" stroke="#000000" stroke-width="4.58333" stroke-miterlimit="8" fill="none" fill-rule="evenodd"/><path d="M1807.5 487.5 1922.36 487.5" stroke="#000000" stroke-width="4.58333" stroke-miterlimit="8" fill="none" fill-rule="evenodd"/></g></svg>